<?xml version="1.0" encoding="UTF-8" standalone="no"?>
<!-- Created with Inkscape (http://www.inkscape.org/) -->

<svg
   width="512"
   height="512"
   viewBox="0 0 512 512"
   version="1.1"
   id="svg1"
   inkscape:version="1.3.2 (091e20e, 2023-11-25, custom)"
   sodipodi:docname="temp-zelez_logo.svg"
   inkscape:export-filename="temp-zelez_logo.png"
   inkscape:export-xdpi="96"
   inkscape:export-ydpi="96"
   xmlns:inkscape="http://www.inkscape.org/namespaces/inkscape"
   xmlns:sodipodi="http://sodipodi.sourceforge.net/DTD/sodipodi-0.dtd"
   xmlns="http://www.w3.org/2000/svg"
   xmlns:svg="http://www.w3.org/2000/svg">
  <sodipodi:namedview
     id="namedview1"
     pagecolor="#505050"
     bordercolor="#eeeeee"
     borderopacity="1"
     inkscape:showpageshadow="0"
     inkscape:pageopacity="0"
     inkscape:pagecheckerboard="0"
     inkscape:deskcolor="#505050"
     inkscape:document-units="px"
     showgrid="false"
     inkscape:lockguides="false"
     showguides="true"
     inkscape:zoom="1.6448519"
     inkscape:cx="448.36863"
     inkscape:cy="224.64028"
     inkscape:window-width="2560"
     inkscape:window-height="1387"
     inkscape:window-x="2552"
     inkscape:window-y="-8"
     inkscape:window-maximized="1"
     inkscape:current-layer="layer3">
    <inkscape:grid
       id="grid2"
       units="px"
       originx="0"
       originy="0"
       spacingx="1"
       spacingy="1"
       empcolor="#0099e5"
       empopacity="0.30196078"
       color="#0099e5"
       opacity="0.14901961"
       empspacing="5"
       dotted="false"
       gridanglex="30"
       gridanglez="30"
       visible="false" />
  </sodipodi:namedview>
  <defs
     id="defs1">
    <rect
       x="72.651553"
       y="163.78841"
       width="254.49538"
       height="233.00084"
       id="rect2" />
    <rect
       x="72.651553"
       y="163.78841"
       width="438.48866"
       height="219.67422"
       id="rect3" />
    <rect
       x="72.651553"
       y="163.78841"
       width="438.48866"
       height="219.67422"
       id="rect4" />
    <rect
       x="72.651553"
       y="163.78841"
       width="438.48866"
       height="219.67422"
       id="rect5" />
    <rect
       x="72.651553"
       y="163.78841"
       width="1031.8552"
       height="437.93096"
       id="rect6" />
  </defs>
  <g
     inkscape:label="Background"
     inkscape:groupmode="layer"
     id="layer1">
    <rect
       style="fill:#000000"
       id="rect1"
       width="616.25574"
       height="594.79919"
       x="-52.295189"
       y="-54.25573"
       inkscape:label="rect1"
       ry="0" />
  </g>
  <g
     inkscape:groupmode="layer"
     id="layer3"
     inkscape:label="Art">
    <path
       style="fill:#333333"
       id="path13"
       d="m 147.56855,-97.588905 c -20.19276,11.588246 -41.28744,21.509359 -62.113365,31.887336 -5.907523,3.035601 -11.889966,5.929628 -17.722568,9.106804 -13.592901,7.40442 -27.228588,15.683267 -40.274993,23.989362 -13.465219,8.572737 -26.2452768,17.14441 -39.132972,26.5599211 -6.067657,4.4329179 -11.965287,9.0939984 -17.947931,13.6409976 -21.129069,16.8309293 -40.918477,35.2564383 -59.871655,54.4845903 -9.059135,9.190566 -18.787016,19.562256 -27.657776,28.933593 -12.38809,13.331301 -24.79368,26.657941 -36.79808,40.338761 -10.81992,12.33091 -21.39358,24.88807 -32.09803,37.31957 -13.92529,16.06567 -27.79522,32.17764 -41.46428,48.46187 -8.32136,10.04257 -8.59996,10.24747 8.53481,17.75995 1.09898,0.48183 2.33717,-0.56808 3.46292,-0.98354 1.81682,-0.67051 3.56576,-1.51228 5.34864,-2.26842 2.51479,-1.28013 5.0525,-2.51617 7.54435,-3.84038 9.94726,-5.28616 13.75712,-7.69507 24.31694,-13.7892 5.95793,-3.43835 11.92093,-6.86792 17.89051,-10.286 19.85776,-11.37021 21.03655,-11.99537 41.30181,-23.4399 44.376553,-24.90358 87.924678,-51.23085 131.392548,-77.67519 29.673291,-18.109246 59.347686,-36.223204 88.639662,-54.946267 13.80718,-8.825378 32.57994,-21.093666 46.23833,-29.988404 46.50699,-30.517975 94.01236,-59.706121 143.70974,-84.782045 8.23662,-4.155972 16.61107,-8.03296 24.91661,-12.04944 18.15449,-8.399003 36.61756,-16.139584 55.46621,-22.845414 4.8479,-1.72475 14.19801,-4.88069 19.67281,-6.24463 1.88252,-0.469 3.81338,-0.71659 5.72006,-1.07488 4.29468,0.3687 15.70708,1.81647 -6.97764,-5.14286 -0.88313,-0.27093 0.9704,1.62179 1.12547,2.53244 0.2304,1.35292 0.1465,2.75191 0.007,4.11719 -0.46375,4.53602 -1.63534,7.66433 -2.93482,12.100016 -6.26784,16.926266 -16.73518,31.797091 -28.81892,45.07625 -3.22798,3.547312 -6.66134,6.902146 -9.992,10.353219 -26.17607,25.16869 -55.38471,46.8951095 -84.49932,68.494708 -35.68373,26.083531 -71.99704,51.283682 -108.42494,76.311297 -33.2229,22.66985 -66.274649,45.58459 -99.149877,68.7553 -17.054178,12.2476 -34.261856,24.31999 -50.7503085,37.33225 -7.442922,5.87376 -17.1118465,13.96509 -24.3999605,20.00757 -22.51101,18.35235 -42.831465,39.12397 -63.153432,59.81134 -16.229311,16.68147 -32.627792,33.19672 -49.146482,49.59133 -3.11152,3.41928 -6.79463,6.27246 -9.9647,9.63317 -0.90467,0.95908 -1.83987,1.92427 -2.4979,3.06675 -0.35431,0.61517 -1.06302,1.69502 -0.46543,2.07826 14.81272,9.49947 11.11605,9.20439 21.58072,5.46129 3.02765,-1.27754 6.06563,-2.53086 9.08293,-3.83263 14.199856,-6.12631 12.23731,-5.51951 28.08727,-12.25205 17.970983,-7.63348 36.137075,-14.79577 54.265788,-22.04248 40.2284195,-16.28347 80.243484,-33.08463 120.040704,-50.39407 29.882458,-12.96279 59.476058,-26.62744 88.484758,-41.45236 6.95263,-3.55315 13.85079,-7.21189 20.77618,-10.81783 48.98078,-25.41239 97.18677,-52.26791 144.97957,-79.83784 52.20729,-30.67386 104.14229,-61.804158 156.49,-92.239406 35.46599,-20.711844 71.15766,-41.0604056 107.35493,-60.472106 15.68091,-8.40928 26.68609,-14.054849 42.288,-22.147501 21.44618,-10.859422 43.00096,-21.537264 65.01472,-31.205832 -5.78351,-3.926717 6.48029,-0.200682 4.99614,-1.030642 -4.12557,-2.307094 -8.0934,-5.187227 -12.67052,-6.367483 -0.98398,-0.253729 -0.76586,1.888291 -1.26287,2.774617 -1.86755,3.330426 -5.49003,8.530964 -7.45973,11.454561 -19.93067,27.679491 -43.73055,52.3893853 -68.29432,75.961789 -7.65835,7.349261 -15.53703,14.465417 -23.30555,21.698125 C 563.261,77.922024 517.0779,115.07812 469.87157,150.79994 c -10.31249,7.80363 -20.75488,15.43407 -31.13232,23.1511 -50.63789,37.23168 -102.60004,72.60077 -153.93452,108.85266 -35.94149,25.96132 -71.36181,52.64181 -107.44226,78.4114 -28.5107,20.36308 -42.82659,30.06533 -71.67878,49.96977 -43.142523,29.58682 -86.741981,58.498 -130.332729,87.41756 -8.954567,5.94076 -17.940883,11.83389 -26.866751,17.81769 -8.680513,5.81931 -17.301146,11.72745 -25.951719,17.59117 -32.231411,21.7178 -64.680401,43.11913 -96.761421,65.05946 -0.75456,0.51229 -9.77653,6.61912 -11.41275,7.78703 -0.93894,0.6702 -3.53575,1.24214 -2.7564,2.09266 3.48675,3.80508 7.94546,6.88703 12.73852,8.80084 1.39441,0.55678 2.64511,-1.42158 3.96912,-2.12967 2.85062,-1.52454 5.70317,-3.04548 8.55476,-4.56822 36.30237,-18.53041 73.057087,-36.15652 109.825398,-53.73802 33.854553,-16.13012 67.751077,-32.19187 101.925223,-47.63756 25.234724,-11.40534 37.825776,-16.75469 63.602659,-27.94952 63.12364,-26.92792 126.81348,-52.50345 190.63225,-77.73057 9.66404,-3.83406 19.33134,-7.65991 28.99211,-11.50219 11.92927,-4.74451 44.82225,-17.85121 56.8037,-22.74323 28.86183,-11.78428 57.53076,-24.03136 86.19143,-36.29361 61.03382,-26.44335 121.78883,-53.52634 182.43561,-80.84394 42.88357,-19.16746 86.02846,-37.7395 129.56553,-55.37254 1.96388,-0.75828 12.75639,-5.04148 15.93701,-5.9209 1.22094,-0.33758 4.72492,0.2508 3.75767,-0.56717 -19.90704,-16.83496 -10.06139,-8.46872 -11.43977,-3.83144 -0.48189,1.62123 -1.31317,3.11737 -1.96976,4.67605 -9.64087,17.52811 -22.10686,33.42255 -35.63012,48.11314 -4.35102,4.7266 -8.91152,9.25598 -13.36729,13.88397 -6.12071,5.74071 -12.10599,11.62932 -18.36213,17.22213 -7.12599,6.37042 -14.42519,12.54677 -21.77421,18.65855 -19.44921,16.17482 -35.92997,29.08003 -56.19741,44.39542 -21.65524,16.36411 -38.90511,28.69184 -60.86599,44.60004 -50.99762,36.37299 -102.70508,71.73205 -153.61922,108.22287 -36.22108,26.43457 -71.26957,54.42293 -106.70937,81.88468 -23.45995,18.11025 -47.11842,35.96848 -71.14745,53.31863 -8.81161,6.36242 -26.9383,19.19217 -35.86018,25.52055 -28.54934,20.13487 -57.11683,40.24375 -85.47536,60.64704 -11.28606,8.32901 -22.92304,16.25959 -33.4631,25.54541 -0.41102,0.52704 -1.036497,0.94232 -1.23306,1.58113 -0.170644,0.55457 -0.279563,1.42396 0.215023,1.72737 9.715267,5.95993 10.902397,8.99394 18.687397,7.12341 4.88091,-1.17275 10.41199,-3.32403 15.00301,-4.9537 50.05157,-20.69155 100.51007,-40.35104 151.11015,-59.65369 63.23726,-23.60505 127.43161,-44.58281 192.12613,-63.81362 43.00129,-12.78238 62.9383,-17.99895 105.7996,-29.73471 74.21919,-19.74351 148.81586,-38.0169 223.07041,-57.62491 25.0255,-6.49874 49.83085,-13.77195 74.53065,-21.40162 0,0 -10.69146,-7.2709 -10.69146,-7.2709 v 0 c -24.12129,8.06207 -48.4036,15.62787 -72.90998,22.44384 -73.14094,20.53967 -146.66084,39.6754 -219.91754,59.79387 -53.53002,15.02776 -107.07882,30.06218 -160.23646,46.37386 -16.87308,5.17758 -33.66735,10.60926 -50.47053,16.00942 -52.64052,16.91745 -40.20561,12.89814 -89.03693,30.01137 -12.31974,4.38835 -24.67506,8.67807 -36.95922,13.16505 -39.35533,14.37514 -78.07739,30.4729 -117.73595,44.01385 -5.34625,1.62213 -10.09336,3.33544 -15.56533,4.18634 -1.16883,0.18176 -4.36264,-0.68973 -3.54481,0.16489 2.9126,3.04361 7.10326,4.54561 10.47251,7.07444 0.31145,0.23377 -1.10191,0.29578 -1.16491,-0.0885 -0.0914,-0.55747 0.61115,-0.95027 0.91673,-1.42541 9.86757,-9.68851 21.17076,-17.77922 32.08018,-26.22152 27.83765,-20.84381 56.1039,-41.10313 84.41352,-61.29928 36.08324,-25.73972 72.0739,-51.62226 107.03702,-78.87829 35.37058,-27.42068 70.36635,-55.33042 106.17487,-82.17987 50.28243,-36.99235 101.49303,-72.68646 152.15719,-109.15051 30.40936,-22.1131 60.78097,-44.24933 90.66014,-67.07831 9.22,-7.04448 18.47138,-14.05119 27.54149,-21.28764 17.65971,-14.08951 24.80852,-20.68491 41.38723,-35.23635 4.57386,-4.57874 9.24448,-9.06284 13.7216,-13.73623 13.95878,-14.57071 26.80119,-30.3347 37.31075,-47.58689 0.82379,-1.61684 1.79682,-3.16595 2.47136,-4.85053 0.45731,-1.14206 1.84497,-2.78616 0.90372,-3.57831 -4.17573,-3.51428 -9.30017,-5.85214 -14.40457,-7.78395 -1.14126,-0.43191 -2.37804,0.57395 -3.52164,0.99964 -2.08131,0.77474 -14.60314,6.3221 -15.09716,6.53911 -42.39919,18.95658 -84.75795,38.00229 -127.12995,57.01952 -60.78446,27.09783 -121.33607,54.73103 -182.61757,80.69992 -57.05554,24.19383 -114.32099,47.88114 -172.03026,70.47989 -63.59961,25.43001 -126.95337,51.46929 -190.03415,78.16195 -11.210995,4.73125 -22.453001,9.38967 -33.632989,14.19373 -44.849659,19.27197 -89.240956,39.57987 -133.357011,60.47146 -37.22798,17.50475 -74.30464,35.33415 -111.67972,52.52404 -3.06934,1.33658 -6.07928,2.81886 -9.20804,4.00974 -1.18904,0.45258 -4.52816,-0.066 -3.70764,0.90629 3.03231,3.59324 7.12947,6.37175 11.43798,8.25406 0.99958,0.4367 1.58225,-1.50471 2.42458,-2.19777 2.39305,-1.96897 8.76864,-6.69101 10.75896,-8.18282 30.88631,-22.92235 62.5002,-44.85996 94.167872,-66.68209 60.5009957,-41.32102 121.171093,-82.39359 181.595338,-123.82706 35.3259,-24.36356 70.7246,-48.63277 105.91351,-73.19401 29.40968,-20.52745 24.80444,-17.54341 52.25917,-37.26119 7.70323,-5.53241 15.43316,-11.02754 23.14973,-16.54131 50.86054,-36.52683 102.1034,-72.52705 152.3744,-109.86845 18.234,-13.60217 44.40244,-33.01253 62.38982,-46.87756 11.56942,-8.91794 45.7896,-36.006566 57.18313,-45.421491 18.3038,-15.125153 31.88905,-27.413984 49.65903,-43.138983 15.6766,-14.277221 29.95862,-27.019963 45.09399,-41.8011061 5.83839,-5.7017406 11.50048,-11.5819548 17.17137,-17.4503139 4.91422,-5.085348 9.83331,-10.169408 14.58246,-15.409253 5.2802,-5.825769 12.77279,-15.088217 17.9351,-21.380937 1.20931,-1.650207 6.65008,-8.997866 8.14087,-11.278947 0.69055,-1.056624 2.72153,-2.335403 1.88749,-3.282868 -9.04796,-10.278415 -9.868,-10.746705 -17.54179,-7.219892 -21.14152,10.584858 -42.16084,21.412532 -62.98026,32.620258 -15.36479,8.308986 -26.09853,14.069725 -41.57822,22.63369 -35.8926,19.85718676 -71.38442,40.426284 -107.03576,60.710345 -52.33473,30.541034 -104.44278,61.466388 -156.74074,92.069978 -17.75403,10.19265 -31.69457,18.27274 -49.55967,28.22551 -31.68408,17.65142 -63.69093,34.73015 -96.03446,51.1421 -36.20241,18.02217 -72.47926,35.92015 -109.623073,51.94824 -39.715124,17.51922 -79.62740126,34.60537 -120.102948,50.30525 -6.023411,2.41065 -30.528127,12.21453 -36.52304,14.6268 -45.297559,18.22712 8.091598,-3.16377 -34.609289,13.88414 -4.13942,1.65262 -8.25166,3.37423 -12.41141,4.97499 -3.13254,1.20546 -6.30845,2.29506 -9.46268,3.4426 -9.29346,2.33055 -9.54117,0.62792 3.30736,9.36289 0.41464,0.28189 -0.40354,-1.02683 -0.21014,-1.48941 0.47888,-1.14536 1.31323,-2.11765 2.11464,-3.06576 0.8889,-1.05161 9.25506,-9.56882 9.56512,-9.88606 16.11614,-16.72733 32.488451,-33.20208 48.604712,-49.92922 20.159444,-20.74289 40.415677,-41.47405 62.7829743,-59.87971 4.0772189,-3.36714 8.12302704,-6.77269 12.2316567,-10.10143 20.334004,-16.47428 41.389076,-32.02537 62.61895,-47.31823 32.607967,-23.38146 65.473787,-46.39742 98.545987,-69.11776 36.44929,-25.094091 72.87748,-50.22621 108.73701,-76.160552 29.33212,-21.571778 58.78268,-43.2207412 85.34245,-68.208218 3.39702,-3.441749 6.89418,-6.787446 10.19104,-10.325247 12.3808,-13.285601 23.09068,-28.178373 29.89992,-45.100163 1.70542,-5.186895 4.06512,-11.11929 3.83892,-16.7236 -0.34234,-8.48185 -11.46735,-12.84935 -19.12734,-11.78084 -1.81725,0.47045 -3.65914,0.85435 -5.45176,1.41134 -5.1079,1.58708 -14.36445,5.14024 -18.83034,6.91588 -18.31331,7.28137 -36.30357,15.347825 -54.05308,23.908562 -8.18342,4.109724 -16.42985,8.096321 -24.55027,12.329172 C 232.6096,-47.122597 185.28295,-17.610437 137.96483,11.7729 93.236504,40.532626 48.407178,69.140718 2.7893794,96.478956 -40.701094,122.91287 -84.250939,149.27981 -128.73601,174.01962 c -11.67849,6.49266 -29.92686,16.66376 -41.7573,23.14111 -14.41513,7.89251 -28.8668,15.88417 -43.68726,23.00782 -2.57462,1.23752 -5.20996,2.34454 -7.81493,3.51681 -1.83057,0.61184 -3.61095,1.40187 -5.49172,1.83553 -1.02476,0.23629 -3.90747,-0.57331 -3.15103,0.15729 3.13879,3.0316 7.04424,5.19625 10.86902,7.29711 0.44515,0.2445 -0.43732,-1.00358 -0.30265,-1.49328 0.59313,-2.15686 3.60751,-5.71511 4.64975,-7.10883 13.09915,-16.65061 26.66846,-32.91845 40.34613,-49.09615 22.28762,-26.39404 44.67004,-52.72928 68.29469,-77.946876 C -79.135473,68.118158 -51.07346,39.123421 -19.670185,13.878716 -13.730737,9.3219442 -7.8807074,4.6461921 -1.8518429,0.20839996 28.822816,-22.370937 61.43789,-42.397609 95.780352,-58.893794 117.16787,-69.117406 138.7178,-79.000941 159.97002,-89.506174 Z" />
    <path
       style="fill:#333333"
       id="path14"
       d="m -211.59243,-44.224921 c 7.70027,7.652369 13.7803,16.983369 19.63622,26.039901 10.01459,15.4881757 17.1624,27.8565836 26.77104,43.967653 43.10206,73.226386 -9.69495,-16.6565693 37.17028,63.781138 8.61425,14.785179 17.31967,29.517049 25.96866,44.281929 12.807382,21.86379 48.16746,82.39285 60.687177,103.50987 10.666019,17.99038 21.47703,35.89441 32.2155445,53.84162 C 42.695942,376.38078 96.29084,460.54096 152.68821,542.79011 c 10.4531,15.24465 21.13373,30.33204 31.70059,45.49807 29.47896,42.59079 61.38837,83.43309 94.08306,123.58334 16.04731,19.70667 34.98858,42.50903 52.27825,61.45661 6.71542,7.35937 13.79167,14.38121 20.6875,21.57181 11.21724,10.24219 19.08559,18.06282 31.00792,26.89376 3.13509,2.32217 6.36437,4.56125 9.82988,6.35331 5.91944,3.06102 11.6912,6.97687 18.24826,8.16628 1.76522,0.3202 2.99277,-2.49015 3.29006,-4.25937 0.53236,-3.16811 -0.64199,-6.39289 -0.96299,-9.58934 -1.53203,-4.81961 -2.85157,-9.71199 -4.59609,-14.45882 -4.74322,-12.90631 -12.14116,-29.29361 -17.90432,-41.47965 -12.85436,-27.18015 -27.16407,-53.6031 -41.34589,-80.10198 -24.01866,-44.65512 -47.8388,-89.41718 -71.98071,-134.00601 -6.66114,-12.30277 -13.27358,-24.63254 -20.05115,-36.87155 -7.95833,-14.37126 -16.10362,-28.6382 -24.15543,-42.95729 C 191.95315,400.98619 152.27923,328.66743 109.5123,258.16642 101.88203,245.58798 94.035777,233.14184 86.297517,220.62954 49.400429,161.66445 8.5493192,105.34341 -31.396786,48.445572 -38.690944,38.056026 -45.926019,27.625125 -53.190636,17.214901 c -24.561972,-35.561239 -48.489424,-71.598647 -70.441904,-108.84213 -10.41898,-17.676321 -14.86464,-26.083841 -24.46916,-43.605861 -7.10082,-13.20752 -13.91352,-26.57656 -20.35136,-40.12061 -1.00729,-2.11914 -4.04927,-8.41284 -4.88357,-11.38992 -0.12751,-0.45501 0.0165,-0.94493 0.0247,-1.41739 2.1896,7.11375 -2.41608,-9.52679 -8.17577,-1.58226 -1.82038,2.5109 4.08832,4.66545 6.07689,7.04537 10.86617,13.00462 21.31383,26.37866 31.92462,39.58998 5.14959,6.3254 10.27527,12.67032 15.44875,18.97618 19.10747,23.28978 38.556208,46.274123 58.500012,68.854044 19.934904,22.569845 27.518222,30.664787 48.032,53.099721 26.5176809,28.555783 53.471681,56.709208 81.069731,84.224427 11.527649,11.493051 53.207237,52.210698 64.517547,63.368828 12.0663,11.90394 24.06951,23.87167 36.10426,35.80751 66.26363,66.3464 130.55022,134.62101 194.83098,202.87741 32.10548,33.90155 64.2507,67.77634 97.24318,100.82022 15.93207,15.9569 23.40535,23.13733 39.26894,38.59297 25.09921,24.01653 50.28658,47.94059 75.54139,71.79336 5.51179,5.2231 10.94768,10.52259 16.26358,15.94456 0.96607,0.98534 1.90696,1.99564 2.8902,2.96385 0.54706,0.5387 1.02018,1.19649 1.699,1.55522 4.47098,2.36277 9.11644,4.37951 13.67466,6.56926 -0.40495,-1.57173 -0.57604,-3.22312 -1.21484,-4.71518 -1.14576,-2.67619 -9.24067,-15.96179 -9.64989,-16.64739 C 582.19422,586.67085 573.56744,572.42536 564.86407,558.2183 548.40296,531.35561 531.67606,504.65496 516.0685,477.28036 504.71611,457.36901 498.43101,445.51055 487.46835,425.28601 450.45683,356.10347 413.00993,287.15714 375.2942,218.3564 341.45328,156.23974 306.34595,94.82614 270.58037,33.801263 249.80746,-1.4882269 228.78061,-36.633922 208.73662,-72.345223 c -4.98188,-9.37863 -10.46896,-18.505097 -15.3021,-27.964627 -0.70981,-1.38925 -1.40967,-2.79065 -1.95555,-4.25211 -0.16096,-0.43093 0.26266,-1.15976 -0.14527,-1.37236 -3.82196,-1.99185 -7.96792,-3.28812 -11.95187,-4.93219 1.79184,1.63412 3.63391,3.2148 5.37554,4.90234 2.66888,2.586 5.23758,5.27342 7.85202,7.914442 8.33909,8.423861 13.9888,14.238771 22.66206,22.68841 14.93331,14.548304 15.90635,15.208956 31.80887,29.791541 6.28111,5.493041 12.50893,11.047613 18.84332,16.479125 12.03145,10.316538 31.66656,26.5668669 43.71235,36.4969228 20.22676,16.6741142 32.89597,27.0650352 53.96922,43.7195752 10.72033,8.472455 21.54699,16.809488 32.32049,25.214231 77.41879,59.052493 158.15192,113.548313 238.65938,168.251073 51.76985,35.31199 103.83765,70.19242 156.57977,104.03746 35.68471,22.84436 72.34122,44.12949 109.17352,65.05678 2.88994,1.58912 11.35599,6.42373 15.09281,7.92131 1.31183,0.52573 2.6881,1.1369 4.10017,1.07902 2.87449,-0.11781 2.72903,-3.22257 2.30422,-5.09317 -0.43539,-1.91723 -1.47246,-3.64598 -2.20869,-5.46897 -3.93438,-6.98459 -5.85558,-10.70184 -10.62789,-17.63741 -3.47304,-5.04736 -7.11433,-9.97828 -10.78919,-14.88065 -15.77102,-21.039 -32.63964,-41.14674 -49.53814,-61.27803 -29.89887,-35.35232 -61.50938,-69.18798 -93.2717,-102.85555 -9.62091,-10.19801 -19.26027,-20.37861 -28.8904,-30.56792 -9.74973,-10.3377 -19.49946,-20.6754 -29.24918,-31.0131 C 656.43259,110.30848 615.70845,66.626252 575.50123,22.469394 550.54847,-4.9345389 543.62558,-12.77095 519.32502,-39.900989 480.08859,-83.89128 441.09818,-128.10032 402.1329,-172.33072 c -15.50952,-17.78438 -31.34408,-35.30648 -46.212,-53.63884 0,0 -13.08907,-5.5663 -13.08907,-5.5663 v 0 c 15.68917,18.58788 32.21553,36.4503 48.39091,54.61074 39.91125,44.50451 79.71355,89.106804 119.73933,133.508379 58.87028,65.122891 118.13918,129.889133 178.19441,193.922641 50.63899,53.79621 101.77609,107.21109 149.56114,163.59355 20.18336,24.29764 40.64344,48.53994 58.02683,74.97821 4.63897,7.05538 6.12365,10.08361 9.9119,17.06219 0.6842,1.63252 1.43451,3.23888 2.0526,4.89757 0.26702,0.71656 0.78202,1.47268 0.59778,2.21485 -0.28988,1.16771 -2.86577,0.38694 -4.89894,-0.44435 -3.82771,-1.56502 -11.20533,-5.72427 -14.33216,-7.41705 -4.74694,-2.66444 -9.54122,-5.24514 -14.25802,-7.96257 C 850.84782,383.04279 826.0933,368.27204 801.80032,352.76677 748.15997,318.56288 695.1909,283.31972 642.48854,247.69018 561.96927,193.33772 481.31118,139.03577 404.33135,79.702806 393.70224,71.361001 383.00398,63.106564 372.44402,54.67739 358.5045,43.550572 333.94769,23.318325 319.60521,11.42839 307.39239,1.3039484 288.66911,-14.288583 276.49906,-24.790917 c -6.24131,-5.386038 -12.37889,-10.891112 -18.56834,-16.336668 -5.53896,-5.123488 -11.13857,-10.182185 -16.61689,-15.370463 -16.62353,-15.743412 -32.52948,-32.233445 -48.10288,-49.009452 -5.07608,-2.32178 -9.93789,-5.18505 -15.22824,-6.96532 -0.63487,-0.21364 0.1268,1.35505 0.38866,1.97159 0.66508,1.56591 1.53935,3.03549 2.36885,4.52087 5.3263,9.537656 11.02818,18.869302 16.31966,28.427346 20.71042,35.936367 42.18469,71.4202358 63.59025,106.945597 36.56159,61.253182 72.53451,122.868657 106.792,185.446947 20.41921,37.25852 40.63946,74.62043 60.64903,112.10095 23.64822,44.29618 12.51168,23.73018 35.06325,66.50201 4.83803,9.17591 9.73106,18.32272 14.59659,27.48407 10.7476,19.96433 17.21015,32.18647 28.27048,51.88063 12.04076,21.43994 24.58767,42.56244 37.33872,63.5837 3.39926,5.60399 6.79112,11.21247 10.18668,16.8187 8.44656,14.03195 16.87252,28.06578 24.94499,42.3177 1.85222,3.27007 3.69715,6.54468 5.4903,9.84752 1.10564,2.03648 2.05119,4.15932 3.20519,6.16879 0.52562,0.91527 1.21591,1.72556 1.82386,2.58833 4.19933,2.38806 8.33166,4.89799 12.598,7.16416 0.7431,0.39471 -1.37654,-0.97449 -2.0029,-1.53633 -1.08407,-0.97241 -2.08259,-2.03618 -3.11965,-3.05858 -5.5963,-5.51715 -11.24919,-10.97404 -17.02073,-16.30917 C 553.46379,576.3401 527.61693,552.12147 501.88309,527.78262 485.39404,511.91067 478.45411,505.34375 461.89301,488.91451 428.41952,455.70753 395.81477,421.64059 363.25694,387.54049 298.45193,319.21639 233.65362,250.8715 167.20943,184.13077 155.39447,172.28371 143.63213,160.38393 131.76455,148.58957 120.97347,137.86507 110.05128,127.2732 99.234183,116.57495 61.217669,78.976118 23.56505,40.993578 -12.571559,1.5707462 -20.732027,-7.3997194 -28.945542,-16.322212 -37.052963,-25.340651 -70.015579,-62.007225 -101.95335,-99.595937 -132.41409,-138.37145 c -26.77877,-34.26337 0.3374,0.4849 -22.66775,-29.13231 -2.54488,-3.27631 -5.08694,-6.55495 -7.65836,-9.81047 -1.83092,-2.31802 -3.28707,-5.00923 -5.54834,-6.90978 -5.04365,-4.23906 -10.48377,-8.04182 -16.18009,-11.35241 -0.64249,-0.3734 -1.40584,0.48219 -2.10877,0.72328 0.0551,0.69193 -0.0512,1.41625 0.16514,2.07579 0.84105,2.56405 4.97709,10.46765 5.71282,11.8901 7.10995,13.74639 14.43094,27.38691 21.96972,40.9026 13.23082,23.38935 26.5342,46.730249 40.80762,69.507348 17.86899,28.514817 36.943739,56.260035 56.0795,83.93049 47.436814,67.444589 96.143948,134.066362 140.327418,203.727522 7.800518,12.5349 15.697606,25.01021 23.401552,37.60469 43.0943,70.45092 83.44294,142.5439 123.76695,214.59922 17.62526,32.28951 26.12637,47.73362 43.11786,79.32861 23.85929,44.36537 47.23558,88.98756 70.83983,133.48853 13.8459,26.30174 27.89786,52.50566 40.288,79.53953 5.79356,12.64088 12.18393,27.42376 16.67876,40.73904 1.53562,4.54905 2.62347,9.23716 3.9352,13.85574 0.29205,2.78553 1.17798,5.5721 0.87614,8.35659 -0.13342,1.23078 -2.5717,1.90436 -2.11308,3.05427 0.92842,2.32784 7.8436,5.82725 5.41251,5.21844 -4.05107,-1.01451 -7.27848,-4.12559 -10.68654,-6.53921 -12.44255,-8.81191 -21.14462,-17.17547 -32.7759,-27.45642 -7.22514,-7.31153 -14.64554,-14.43511 -21.6754,-21.93458 C 321.45217,757.72761 302.34853,735.18099 285.60643,714.91667 252.45942,674.79613 220.53653,633.6583 190.6743,591.02209 180.03861,575.82971 169.28809,560.71708 158.76725,545.44494 102.06358,463.13352 48.095959,378.93264 -3.8458373,293.54651 -14.526181,275.62721 -25.305834,257.76673 -35.886869,239.78861 -54.06599,208.90067 -77.369297,168.32369 -95.117645,136.93315 -115.21043,101.39613 -134.835,65.593128 -155.2127,30.216554 c -9.52168,-16.651743 -15.46086,-27.2726783 -25.06167,-43.272109 -5.2978,-8.828609 -10.64568,-17.765602 -17.46333,-25.538304 z" />
    <path
       style="fill:#666666"
       id="path15"
       d="m 710.15922,-177.18274 c -1.32047,0.19094 -2.65067,0.32368 -3.9614,0.57282 -20.84108,3.96145 -40.8632,12.60093 -60.56465,20.01347 -12.77514,4.80656 -25.56652,9.56983 -38.34978,14.35474 -18.83331,7.34338 -37.66733,14.68491 -56.49992,22.03012 -37.1791,14.50086 -109.18371,42.490253 -144.99621,56.925702 -29.47517,11.880973 -58.82531,24.069977 -88.20631,36.181972 -98.47236,40.594157 -87.6944,36.2785178 -185.46576,77.49665 -134.0452755,56.853046 -267.32829,115.481856 -401.2727,172.569046 -26.47891,11.58068 -53.47992,21.98317 -79.80944,33.91313 -0.56311,0.25515 -13.6759,6.00483 -16.04711,8.636 -0.54761,0.60764 -0.10204,1.63279 -0.15306,2.44918 5.84939,2.67705 11.25961,6.67621 17.54818,8.03115 4.29831,0.92611 8.74602,-0.91795 13.11366,-1.42474 6.72474,-0.78029 13.44373,-1.60958 20.1629,-2.43645 33.47099,-4.11899 66.92921,-8.34207 100.39939,-12.46815 109.7957,-13.47645 219.9567563,-23.94876 330.32794,-31.37875 26.29751,-1.7703 52.61842,-3.174 78.92763,-4.76101 106.72895,-5.66117 213.58108,-8.90397 320.44145,-10.71451 61.9541,-1.04969 101.33302,-1.13284 162.9474,-1.5145 111.43591,-0.42816 222.87495,-0.0264 334.29767,1.77408 16.322,0.33052 28.6313,0.53478 44.4947,0.99473 3.7466,0.10863 7.4933,0.22313 11.2377,0.39154 1.6661,0.0749 6.1884,1.50012 4.9919,0.33838 -10.2668,-9.96781 -9.909,-8.67184 -19.4048,-7.47574 -22.2921,2.38478 -3.6232,0.30061 -36.3003,4.41259 -70.43079,8.86277 4.4972,-0.94462 -87.53088,11.60151 -46.59286,6.35198 -93.20182,12.58533 -139.79854,18.90893 -27.0638,3.73604 -54.15484,7.27975 -81.19139,11.20811 -32.20839,4.67981 -64.35425,9.7805 -96.53965,14.61585 -34.74361,5.21967 -69.51127,10.27907 -104.24726,15.54919 -102.15973,15.49958 -204.18366,31.8394 -306.1921,48.29784 -30.19305,4.88236 -60.39832,9.68982 -90.57916,14.64709 -28.599311,4.69749 -57.173875,9.5444 -85.76073,14.31708 -81.436134,13.59606 -162.86884,27.20536 -244.27571,40.97552 -26.07186,4.61742 -52.22113,8.79411 -78.29853,13.3791 -2.63658,0.46357 -14.39635,2.55521 -18.43897,3.58962 -1.04837,0.26825 -2.04182,0.71773 -3.06272,1.07659 0.075,0.71797 -0.40254,1.79705 0.22496,2.15391 5.52012,3.13935 11.31571,5.89929 17.36006,7.84688 2.58086,0.83159 5.41638,0.27405 8.12637,0.36526 4.12326,0.13877 8.24765,0.24754 12.37252,0.32466 9.9077,0.18523 30.60855,0.35535 39.50674,0.44032 90.06317,0.48004 180.068672,4.11072 270.056782,7.50704 110.147668,4.97763 220.269918,10.57802 330.353338,16.82182 65.3614,3.70722 98.86188,5.84463 163.70922,9.83502 126.4843,7.48727 252.86768,16.55126 379.23403,25.78787 29.52657,2.20223 59.07901,4.05738 88.60348,6.2886 4.66937,0.35287 24.38314,1.92567 30.62334,2.60722 2.7241,0.29752 5.4296,0.74596 8.1444,1.11894 1.3452,0.37193 5.1956,1.89192 4.0356,1.1158 -3.9385,-2.63512 -7.9634,-5.39791 -12.497,-6.77697 -1.896,-0.57672 -3.8821,0.79882 -5.8218,1.20471 -3.9564,0.82788 -7.8968,1.73469 -11.8664,2.49661 -14.22788,2.73088 -26.56831,4.62298 -41.06468,6.99255 -26.10759,3.97411 -37.93348,5.85808 -65.0452,9.59602 -13.97331,1.92653 -27.96559,3.7129 -41.94742,5.57663 -65.34338,8.71003 -130.72183,17.13581 -196.09356,25.63078 -110.96122,14.34612 -221.70264,30.31495 -332.29127,47.28105 -29.12641,4.46846 -58.25503,8.92501 -87.35376,13.57027 -31.2977,4.99629 -62.55604,10.23608 -93.83406,15.35413 -138.1030057,22.61531 -276.48643,43.46648 -414.92787,63.89102 -27.23449,3.97164 -54.46597,7.96437 -81.70725,11.88936 -4.20549,0.60594 -8.40937,1.2235 -12.61818,1.80593 -6.88318,0.95253 -4.55591,0.93741 -8.36366,0.81959 5.03068,2.5855 9.63021,6.28649 15.09205,7.7565 2.2625,0.60893 4.51798,-1.24368 6.77544,-1.87103 3.71344,-1.03198 7.42682,-2.06423 11.13725,-3.10698 20.40056,-5.7332 40.62233,-11.9366 60.85302,-18.24468 66.75743,-21.2891 132.06377,-46.92331 196.474852,-74.44797 18.247548,-7.79769 36.368453,-15.88847 54.552679,-23.83271 64.136896,-28.79465 127.956369,-58.29392 191.738289,-87.86464 26.98408,-12.51042 53.87938,-25.21255 80.90495,-37.63308 25.78383,-11.84984 151.07854,-68.56329 176.41721,-80.0413 74.75462,-34.02582 93.169,-42.18202 166.41423,-76.38081 24.58988,-11.48121 49.09256,-23.14828 73.65041,-34.69784 23.51534,-11.05928 46.97251,-22.24389 70.56913,-33.12867 58.25623,-26.87273 64.87568,-29.34408 121.40593,-53.75212 15.41344,-6.35835 30.82688,-12.71669 46.24032,-19.07504 0,0 -6.44828,-4.29611 -6.44828,-4.29611 v 0 c -14.92402,6.68704 -29.84804,13.37408 -44.77206,20.06111 -59.57696,27.07925 -57.19857,25.75243 -119.37766,55.11068 -123.3103,58.22173 -16.87258,8.32196 -142.90584,68.69416 -75.26965,36.05552 -88.05878,41.58055 -165.2671,77.13888 -93.60338,42.21532 -83.86026,38.02605 -177.39055,79.39551 -27.55439,12.18761 -55.20704,24.15316 -82.72213,36.42924 -22.92825,10.22963 -45.71776,20.76761 -68.605771,31.08696 -67.75655,30.54891 -58.974016,26.50407 -125.029662,55.50212 -18.44812,7.76353 -36.835909,15.67201 -55.34436,23.29059 -65.464767,26.94709 -131.831547,51.94437 -199.712507,72.15083 -20.81937,5.94338 -41.6009,11.87362 -62.6512,16.95069 -3.88627,0.93731 -7.7812,1.83929 -11.68331,2.70829 -2.42152,0.53927 -7.71421,-0.92743 -7.28644,1.51625 0.74533,4.25774 6.10589,6.11992 9.15883,9.17987 3.68669,-1.49935 16.64691,-3.77491 18.81288,-4.19224 26.16641,-5.04164 52.4581,-9.41393 78.70792,-13.98822 136.1566,-23.14006 272.25949,-46.61433 408.65835,-68.29724 38.36048,-5.97707 142.03456,-22.17451 182.13312,-28.25786 84.77808,-12.86169 169.647,-25.03959 254.67773,-36.11566 26.39064,-3.43763 52.80546,-6.6871 79.20818,-10.03064 66.90928,-8.06115 76.88697,-9.43012 142.11303,-16.66592 19.27653,-2.13843 38.57613,-4.06632 57.85022,-6.22665 36.47142,-4.08788 72.87844,-8.74309 109.25333,-13.60728 14.54612,-2.00111 28.10013,-3.7867 42.51983,-6.02772 4.2087,-0.65409 8.4429,-1.19227 12.603,-2.10578 2.5514,-0.56026 8.5272,0.091 7.4896,-2.3063 -3.4269,-7.91689 -9.7615,-8.46352 -16.0001,-9.54365 -12.3075,-1.08855 -24.6457,-1.66866 -36.98362,-2.32399 -28.74491,-1.52679 -57.49757,-2.90756 -86.23634,-4.55031 -124.95589,-7.21556 -249.89548,-14.70931 -374.81505,-22.53051 -165.09275,-9.48713 -330.2078,-18.55903 -495.326646,-27.57948 -23.392275,-1.32089 -46.778323,-2.75711 -70.176826,-3.96267 -17.952349,-0.92495 -35.913966,-1.66196 -53.873766,-2.42875 -50.521332,-2.15702 -101.058102,-4.00038 -151.612112,-5.18929 -11.7131,-0.34971 -28.56329,-0.79453 -40.703,-1.34925 -4.29152,-0.1961 -8.58188,-0.42961 -12.86711,-0.73366 -2.83225,-0.20097 -8.23891,-3.61009 -8.48221,-0.78117 -0.76182,8.85799 13.05411,5.25481 6.13971,6.80396 0.8318,-0.4037 1.62255,-0.90612 2.49539,-1.21109 4.25888,-1.48806 13.63131,-3.70382 17.02662,-4.47981 24.90096,-5.69103 50.01115,-10.44043 75.01046,-15.66224 37.80532,-7.406 58.39472,-11.51082 97.57513,-18.84763 105.2838143,-19.71513 210.848616,-37.87027 316.46766,-55.68765 101.96144,-16.54895 203.94673,-32.93211 306.0833,-48.37377 34.77671,-5.25777 69.55182,-10.53368 104.37743,-15.45719 32.804,-4.63771 65.66228,-8.88377 98.50672,-13.22581 27.32367,-3.6122 54.66478,-7.09124 81.99717,-10.63686 77.71664,-9.58419 155.4249,-19.32173 233.44559,-26.14888 18.0708,-1.58127 23.1053,-1.8349 38.5404,-2.80487 2.3358,-0.15202 7.8922,1.71095 7.0073,-0.45606 -4.2761,-10.47199 -8.4771,-8.74301 -15.0227,-8.55184 -3.4676,0.10127 -6.9364,0.16025 -10.4051,0.21697 -14.6024,0.23877 -27.6486,0.34 -42.4584,0.48902 -109.64149,0.8216 -219.28803,0.79536 -328.92592,2.13773 -68.23436,0.72562 -93.42507,0.93444 -162.40167,1.9136 -28.07785,0.39858 -56.158,0.6893 -84.2319,1.30576 -78.97055,1.73408 -157.90767,5.03149 -236.79348,9.0032 -26.34313,1.56449 -52.69581,2.97573 -79.02939,4.69348 -74.906685,4.88618 -149.704607,11.15011 -224.48133,17.68853 -20.95604,1.83238 -41.92104,3.56843 -62.86294,5.55583 -15.85974,1.5051 -31.69262,3.28091 -47.53893,4.92137 -10.33275,1.09936 -62.34585,6.64624 -75.13525,7.96182 -10.41109,1.07093 -36.83737,3.78037 -48.70037,4.55057 -4.65444,0.30219 -10.87273,-2.99272 -13.98442,0.48183 -2.24568,2.50756 4.91587,4.59977 7.37381,6.89966 -2.33248,-2.33201 -2.18309,-1.38671 2.98133,-4.84 3.21741,-2.15139 6.61342,-4.03076 10.02683,-5.85526 24.81197,-13.26223 50.82374,-24.1587 76.17682,-36.29482 52.81376,-24.18056 105.71332,-48.16138 158.63462,-72.10564 23.06761,-10.43694 46.079246,-20.99802 69.18611,-31.34778 73.128035,-32.754649 92.227136,-40.787864 167.12657,-73.320191 30.71046,-12.946761 61.35102,-26.060575 92.13137,-38.840285 80.403,-33.382567 103.41355,-42.408808 183.68767,-73.395767 68.38339,-26.396966 136.96413,-52.369327 206.51774,-75.553587 13.23633,-4.47544 26.43641,-9.05955 39.70899,-13.42631 9.80812,-3.22694 19.6558,-6.3349 29.52995,-9.35376 11.0991,-3.39336 22.50492,-6.77996 34.08064,-8.19041 1.37779,-0.16788 2.77096,-0.16663 4.15645,-0.24994 z" />
    <circle
       id="path16"
       style="fill:#333333;stroke:#000000"
       cx="-226.12259"
       cy="545.96136"
       r="0.43283939" />
    <path
       style="fill:#f9f9f9"
       id="path17"
       d="m -226.71597,523.57891 c 11.28666,-4.55095 10.45669,-4.32746 26.05056,-9.67569 26.70229,-9.1581 74.64312,-24.68863 97.29523,-32.02826 32.777248,-10.62033 65.470154,-21.50837 98.3692224,-31.74511 C 41.724836,435.59083 88.663099,421.74366 135.49513,407.55056 405.82061,325.97264 677.69498,249.63997 950.30445,176.09105 1085.6665,139.57093 1154.8468,121.61298 1286.3441,87.079947 c 67.0594,-17.376594 138.5244,-36.249267 206.2814,-52.664395 20.7107,-5.017466 41.5237,-9.602874 62.2874,-14.3962 7.803,-1.801328 51.0807,-11.642355 64.4518,-15.0743391 3.5368,-0.9077976 7.0045,-2.0662679 10.5068,-3.0994018 0.1293,-0.7626752 1.0958,-1.97620788 0.3878,-2.2880256 -23.6987,-10.4385345 -20.7962,-7.2207011 -46.6676,-4.5780619 -13.4482,1.3736619 -26.8936,2.7757468 -40.3497,4.06922886 -15.0268,1.44446533 -30.0654,2.76302184 -45.0981,4.14453284 -18.9776,1.8494413 -37.9551,3.6988826 -56.9327,5.5483239 -77.7627,7.6119658 -107.5897,10.7366398 -191.9062,17.8830998 -53.9452,4.572267 -107.9251,8.72598 -161.8848,13.124374 -73.0883,5.957609 -146.17402,11.945449 -219.25893,17.94363 -82.51233,6.771903 -165.02187,13.577748 -247.53281,20.366621 -86.16388,7.066269 -172.32777,14.132537 -258.49165,21.198806 -94.82446,7.62813 -189.64597,15.2929 -284.47337,22.8844 -103.270166,8.26739 -206.54618,16.4616 -309.81928,24.69225 -107.17699,8.54178 -214.34691,17.17278 -321.531,25.62505 -210.37168,16.58941 -388.78216,30.54722 -598.33566,45.59262 -82.7221,5.93924 -165.4769,11.41539 -248.2153,17.12308 -178.5435,11.31847 -200.3332,13.04939 -366.9064,22.43509 -72.1797,4.06702 -135.8539,7.68238 -207.2285,10.02736 -33.0652,1.08634 -64.828,1.31692 -97.7258,1.68611 -12.0299,-0.0206 -23.2147,0.18135 -35.0811,-0.4175 -1.8191,-0.0918 -3.6457,-0.20172 -5.4399,-0.51586 -0.4388,-0.0768 -1.5486,-0.88042 -1.1723,-0.64191 14.1729,8.98365 8.2648,9.03804 16.2962,8.18167 8.6616,-0.77773 17.3548,-0.76683 26.038,-0.5129 24.3267,1.10191 48.6683,1.86941 73.0013,2.82166 18.7608,0.73419 37.5176,1.57305 56.2807,2.2463 31.2648,1.12182 62.5348,2.09259 93.8023,3.13889 196.3677,8.75722 392.9332,11.94961 589.4689,13.81224 201.3592,1.90833 323.99394,1.88351 528.07551,0.14481 99.90851,-0.85119 199.80963,-2.41881 299.71444,-3.62821 274.76186,-3.813 549.49863,-9.17405 824.25372,-13.40879 123.90133,-1.90966 234.18773,-3.46501 357.03803,-4.45722 39.28199,-0.31726 78.56552,-0.40194 117.84828,-0.60291 85.40711,0.69097 72.72427,0.0585 147.70152,2.32744 32.9305,0.99655 65.8815,2.20409 98.7458,4.57962 2.9904,0.28079 6.2189,0.50979 9.2331,0.98091 0.4512,0.0705 0.9052,0.14711 1.339,0.28997 0.1362,0.0448 0.4615,0.33965 0.3403,0.2631 -14.3945,-9.08736 -8.307,-9.92439 -16.5163,-7.70024 -19.3231,5.18566 -38.8605,9.53734 -58.3079,14.21442 -26.7268,6.42776 -53.35301,13.28216 -80.15524,19.38781 -42.17726,9.60814 -84.51255,18.50891 -126.77155,27.75087 -56.49513,12.35538 -112.99389,24.6941 -169.49084,37.04115 -197.52787,43.8851 -394.8718,88.58101 -591.987769,134.28032 -67.689833,15.69319 -135.311263,31.6808 -203.011351,47.32971 -187.79379,43.40866 -220.21271,50.4338 -404.50773,91.91003 -151.78754,33.48825 -162.93504,36.18414 -305.55717,66.83694 -35.16854,7.55853 -70.3124,15.23792 -105.54755,22.47961 -56.31398,11.5739 -112.8866,21.7741 -169.4825,31.84486 -5.9649,1.02601 -26.6972,4.64455 -35.174,5.96094 -2.1162,0.32864 -4.2392,0.61547 -6.3662,0.8649 -0.7047,0.0826 -2.6807,-0.30975 -2.1245,0.1308 11.7135,9.27872 8.1956,9.52545 15.1681,7.91637 11.2369,-2.46783 22.7357,-3.38995 34.1788,-4.32196 33.9063,-2.0204 67.71,-5.58263 101.27763,-10.79896 16.01271,-2.48834 31.96582,-5.34611 47.94872,-8.01916 23.56364,-4.43112 47.13581,-8.81708 70.69091,-13.29337 35.28399,-6.70518 70.51329,-13.69941 105.82612,-20.25098 38.95201,-7.22675 77.95617,-14.17105 116.9652,-21.0834 128.53263,-22.77579 224.25758,-39.37152 356.3867,-60.14395 85.21448,-13.39683 170.57018,-25.87936 255.855262,-38.81905 C 353.6982,548.07324 754.3286,500.46459 1153.6878,443.5656 c 191.1787,-27.23831 217.2481,-32.03944 393.9201,-60.17018 229.3632,-39.46057 28.7303,-4.69442 209.7927,-36.6137 19.2539,-3.39424 38.5434,-6.58553 57.7878,-10.03302 15.097,-2.70451 39.5061,-7.2293 56.0187,-11.00583 3.237,-0.74031 6.4193,-1.70217 9.6289,-2.55325 0.89,-0.51573 3.4445,-0.8705 2.6699,-1.54719 -4.3133,-3.76785 -9.3601,-6.80087 -14.6734,-8.93855 -1.9141,-0.77011 -4.1141,0.32741 -6.1648,0.55476 -3.3478,0.37117 -6.6878,0.81019 -10.0285,1.24057 -30.0777,3.87493 -0.631,0.30663 -38.9399,4.79974 -53.0823,5.58689 -106.2928,9.98188 -159.5437,13.60325 -25.495,1.73381 -51.0111,3.14311 -76.5187,4.68117 -31.8223,1.91883 -63.6318,4.07248 -95.4708,5.68948 -43.407,2.20448 -86.8405,3.84976 -130.2607,5.77464 -295.2616,12.14585 -590.69257,19.45776 -886.07624,27.85079 -252.47554,7.17383 -275.05792,7.93888 -523.654237,15.37064 -198.435793,5.99675 -396.859393,12.39258 -595.301683,18.1748 -22.28792,0.64943 -209.3114,5.98054 -244.25527,6.72867 -27.25561,0.58353 -54.51794,0.79415 -81.77691,1.19123 -41.26306,0.2466 -82.52986,0.60223 -123.79376,0.25963 -4.6605,-0.0387 -9.3211,-0.0987 -13.9805,-0.20397 -1.8437,-0.0417 -6.7953,-1.57569 -5.5272,-0.23678 3.6247,3.82734 8.895,5.6593 13.3425,8.48895 45.5295,-3.72705 90.4803,-12.49545 135.27069,-21.13821 29.16137,-5.62698 58.27714,-11.48772 87.41571,-17.23158 206.48331,-38.16561 413.66549,-72.36937 620.7978,-106.78057 82.89991,-13.77229 165.886551,-27.03211 248.70087,-41.31007 C 83.942,222.81926 184.63922,204.4126 285.42525,186.51339 390.16038,166.77089 495.00876,147.61996 599.63066,127.28588 702.22499,107.34589 804.70491,86.808522 907.06379,65.693141 1125.0961,20.715746 1342.6051,-27.125161 1558.4621,-81.675783 c 40.0427,-10.119434 79.8771,-21.045397 119.8157,-31.568097 57.6055,-17.05687 116.3544,-30.20264 173.6453,-48.3634 6.2855,-1.99243 12.5587,-4.0639 18.6615,-6.5604 2.5376,-1.03809 5.4902,-1.85274 7.181,-4.01109 0.7489,-0.95599 -0.9371,-2.24074 -1.4057,-3.36111 -7.4131,-2.68337 -14.498,-6.55821 -22.2393,-8.05012 -5.8341,-1.12433 -11.8836,0.11497 -17.8211,0.32972 -21.4516,0.77589 -42.9994,2.21849 -64.3776,3.95091 -44.1772,3.57997 -79.5087,7.27237 -124.5082,11.68097 -31.2162,3.33163 -62.4215,6.76634 -93.6485,9.99489 -41.3046,4.27048 -82.6311,8.32704 -123.9454,12.5021 -51.6956,5.22414 -103.3881,10.47874 -155.0844,15.69552 -134.3399,13.55649 -251.2614,25.34412 -386.28226,38.585916 -73.75306,7.233129 -147.5209,14.314776 -221.28134,21.472164 -74.62839,7.129933 -149.25556,14.272615 -223.88517,21.389799 C 317.68946,-36.010216 183.46057,-23.212282 57.607978,-11.47266 -98.447789,3.0843358 -254.54651,17.177894 -410.6287,31.447425 c -109.46981,9.840873 -218.83207,20.829434 -328.30275,30.659635 -54.85051,4.925443 -109.73586,9.497781 -164.61548,14.087322 -11.69872,0.965917 -29.43734,2.362533 -42.00335,3.593843 -2.7128,0.26582 -5.44446,0.426872 -8.12575,0.917408 -0.64868,0.118675 -2.31472,0.526887 -1.76572,0.892215 15.89388,10.576441 12.63296,8.892871 27.31709,9.651026 74.88437,3.219645 149.77302,6.874309 224.49605,12.872486 36.81203,2.95498 73.57353,6.50888 110.36029,9.76332 49.48846,5.5442 99.02905,10.64127 148.46537,16.63262 136.92604,16.59449 278.30728,36.17737 414.500131,55.93944 160.167999,23.24096 356.738209,53.48231 516.359269,78.45359 82.70347,12.93821 165.35631,26.19803 248.03447,39.29704 223.30162,33.50274 446.00818,72.18702 665.87088,123.9852 88.052,20.74447 180.4321,45.52987 266.8813,73.73916 27.6067,9.00834 54.6452,19.67277 81.9678,29.50916 42.3751,18.27777 56.1409,22.64039 93.0072,43.26894 9.1444,5.11677 15.4392,11.02929 23.377,17.69896 0,0 11.9354,4.80818 11.9354,4.80818 v 0 c -4.1162,-3.31692 -7.9469,-7.0233 -12.3487,-9.95076 -9.7956,-6.51483 -19.8504,-12.66312 -30.1637,-18.323 -32.185,-17.66291 -51.5194,-24.10225 -87.6189,-38.91573 -26.7985,-9.42686 -53.3595,-19.55808 -80.3954,-28.28057 -90.0959,-29.0673 -174.0077,-51.85704 -266.8828,-73.73728 C 1256.7474,394.32679 1123.1204,368.26468 977.81724,343.14139 896.66011,329.10911 815.17183,317.06434 733.84913,304.02582 651.17095,290.92684 568.51808,277.66706 485.81459,264.72888 326.19127,239.75732 129.6253,209.51672 -30.544931,186.27562 -166.73964,166.51343 -308.11793,146.93118 -445.04557,130.33685 c -49.43642,-5.99122 -98.97712,-11.08812 -148.46568,-16.63219 -37.45699,-3.74949 -74.90052,-7.63598 -112.37097,-11.24846 -58.31192,-5.621786 -88.67046,-8.191372 -144.15197,-12.565488 -44.69964,-3.524083 -32.97025,-2.437394 -70.68651,-5.241705 -6.08872,-0.452714 -12.17427,-0.947116 -18.26141,-1.420674 -11.971,-1.262694 -16.28664,-4.132736 -3.87838,6.349996 0.26582,0.224574 0.28115,-0.742197 0.61377,-0.844483 2.32993,-0.716494 4.74682,-1.124354 7.1483,-1.542488 11.96795,-2.083802 27.91804,-4.011992 39.26794,-5.510942 52.71065,-6.518537 105.44812,-12.940483 158.2581,-18.605912 C -628.62773,51.386972 -519.45887,41.957198 -410.38248,31.62291 -254.30027,17.353385 -98.201532,3.2597843 57.854249,-11.297242 183.70161,-23.036399 317.94142,-35.835359 443.53293,-47.812626 c 74.62961,-7.117192 149.25679,-14.25989 223.88519,-21.389836 73.76046,-7.157405 147.52831,-14.239072 221.28138,-21.472216 135.0266,-13.242392 251.9373,-25.028962 386.2823,-38.585972 58.8192,-5.93556 213.8535,-21.84367 279.5299,-27.84122 32.1143,-2.93268 64.2737,-5.34853 96.4106,-8.0228 55.075,-4.04282 76.5443,-5.9474 128.6345,-8.70333 20.4493,-1.08191 45.7666,-2.15803 66.7711,-2.1388 6.2404,0.006 12.7628,2.38283 18.7146,0.50654 1.9456,-0.61337 -1.4502,-3.8137 -2.1753,-5.72055 1.0431,0.49416 3.56,0.41165 3.1293,1.48248 -0.9114,2.26532 -3.4874,3.5076 -5.6172,4.7018 -5.3575,3.00399 -11.0099,5.4724 -16.6912,7.80668 -10.4151,4.27921 -20.9579,8.25223 -31.5682,12.02151 -59.482,21.13084 -65.0421,21.50718 -134.0912,41.75309 -39.9385,10.52256 -79.7729,21.448359 -119.8154,31.56767 C 1342.3565,-27.29752 1124.8478,20.54314 906.81571,65.52029 804.4569,86.635568 701.97704,107.17284 599.38277,127.11275 494.76094,147.44673 389.91262,166.59758 285.17755,186.33999 184.39158,204.23911 83.694422,222.64565 -17.180337,240.03735 c -7.423993,1.27996 -428.063723,71.05826 -458.322863,76.14197 -180.96965,30.40391 -132.01947,22.53021 -295.3496,50.998 -38.95596,6.78987 -77.9314,13.46755 -116.8971,20.20133 -30.46596,4.81191 -60.91363,9.74115 -91.39789,14.43571 -19.50199,3.0033 -39.01071,5.97344 -58.55911,8.65761 -25.1356,3.45133 -50.459,6.37249 -75.8315,7.39149 -2.5563,0.10266 -5.1162,0.0721 -7.6743,0.10814 3.4662,2.87634 6.4451,6.47068 10.3985,8.62903 1.331,0.72667 3.0112,-0.37372 4.5237,-0.48221 4.2174,-0.30246 8.4399,-0.52916 12.6623,-0.75037 7.7947,-0.40837 15.5915,-0.77808 23.3887,-1.13832 34.8979,-1.61235 56.8802,-2.49195 93.60723,-4.04001 26.49844,-0.94675 52.9923,-2.0322 79.49533,-2.84026 35.83036,-1.09244 71.66955,-1.87405 107.50297,-2.86119 45.58505,-1.25578 91.16935,-2.53935 136.75235,-3.86756 198.44229,-5.78226 396.86589,-12.17807 595.301688,-18.1748 248.609302,-7.43212 271.164992,-8.19637 523.654202,-15.3706 295.38377,-8.39303 590.81483,-15.70506 886.07653,-27.85116 43.5326,-1.84415 87.0638,-3.72256 130.5979,-5.53245 32.623,-1.35627 65.2585,-2.42528 97.8734,-3.96603 25.6967,-1.21393 51.3684,-2.91326 77.0565,-4.29778 55.157,-2.97281 110.3608,-5.31337 165.4508,-9.42187 8.061,-0.69186 16.122,-1.38372 24.183,-2.07558 5.4658,-0.51882 10.9285,-1.0719 16.3975,-1.55645 3.4857,-0.30883 6.9699,-0.66505 10.4656,-0.82362 2.1255,-0.0964 7.176,2.03371 6.3829,0.0594 -5.3912,-13.41933 -7.6054,-9.88143 -11.0684,-6.1236 -2.765,1.11916 -5.4664,2.41073 -8.2951,3.35747 -15.2679,5.1099 -37.1037,10.64824 -51.4411,14.11964 -18.0096,4.36053 -36.0138,8.77209 -54.1522,12.5613 -75.3669,15.74452 -129.4977,24.14986 -208.2411,37.69702 -176.6721,28.1305 -202.7409,32.93147 -393.9197,60.16967 -399.35936,56.89874 -799.98982,104.50765 -1199.005921,163.8778 -225.247519,34.1754 -248.881339,36.70446 -458.737199,72.12001 -299.38407,50.52445 -20.88982,4.77303 -270.47041,47.92702 -80.84193,13.97806 -108.10728,17.85175 -182.62017,29.24712 -16.5912,2.23404 -33.16055,4.63688 -49.7736,6.70212 -34.6321,4.30527 -69.4388,7.08366 -104.3013,8.57382 -11.7457,0.76077 -23.5099,1.63417 -35.0844,3.88051 -6.8273,1.02576 -5.1677,0.18522 9.0843,9.05303 0.4834,0.30075 1.0796,-0.36427 1.6296,-0.51101 1.8629,-0.49697 3.7378,-0.94726 5.607,-1.41958 18.0331,-4.55661 8.4815,-2.17196 32.3154,-7.95005 53.82,-12.75795 107.65336,-25.47215 161.69609,-37.26346 35.14484,-7.66808 70.37905,-14.92113 105.5476,-22.47969 142.62183,-30.65283 153.77016,-33.3489 305.55732,-66.83714 184.30318,-41.47815 216.7053,-48.49953 404.50787,-91.91022 C -52.906961,540.75261 14.714458,524.76504 82.404279,509.07188 279.52018,463.37265 476.86404,418.67682 674.39185,374.79184 c 90.40582,-19.75755 205.02654,-45.50577 298.04676,-63.55021 28.65269,-5.55818 57.50299,-10.04477 86.23859,-15.15753 20.7665,-3.69487 41.5072,-7.57093 62.2242,-11.5366 7.8295,-1.59945 4.5253,-0.0181 -7.4143,-9.85549 -0.1011,-0.0833 -0.2613,0.0276 -0.3922,0.0233 -0.3956,-0.0129 -0.7898,-0.0553 -1.1851,-0.0747 -0.9318,-0.0456 -1.8637,-0.09 -2.7961,-0.12031 -1.8591,-0.0604 -3.7189,-0.10118 -5.5783,-0.15177 -78.5833,-1.30426 -157.16993,1.07206 -235.75453,0.9382 -39.28279,0.20101 -78.56634,0.28574 -117.84836,0.60303 -122.85072,0.99231 -233.1363,2.54769 -357.03814,4.45737 -274.75507,4.23478 -549.49181,9.59577 -824.25365,13.40869 -99.90476,1.20934 -199.80584,2.77691 -299.7143,3.62802 -204.07542,1.73849 -326.72152,1.76323 -528.07512,-0.14525 -196.6677,-1.86407 -393.3887,-4.85216 -589.8708,-14.10864 -32.8031,-2.17563 -65.6118,-4.26734 -98.4092,-6.52689 -45.1802,-3.11264 -90.3232,-6.77932 -135.523,-9.61674 -8.843,-0.34586 -17.6879,-0.33967 -26.5141,0.41817 -7.4638,0.78048 -4.685,-0.25601 7.5104,9.46523 0.2407,0.19188 0.6157,-0.003 0.9234,-0.01 1.5612,-0.0348 3.1232,-0.0506 4.6835,-0.11516 3.6891,-0.15258 7.3775,-0.32777 11.064,-0.53612 6.9994,-0.39558 13.9953,-0.85043 20.993,-1.27564 30.6096,-1.9405 61.2041,-4.11963 91.8207,-5.94706 59.3593,-3.54302 150.0441,-8.09007 205.5723,-11.2189 166.5738,-9.38586 188.3623,-11.11672 366.9065,-22.43535 82.7385,-5.70773 165.4933,-11.18393 248.2155,-17.1232 209.55323,-15.04547 387.9642,-29.00336 598.33568,-45.59275 107.18409,-8.45229 214.35401,-17.08327 321.531,-25.62506 C -128.63671,138.7799 -25.360697,130.58569 77.909473,122.31829 172.73688,114.72679 267.5584,107.062 362.38287,99.433855 448.54675,92.367584 534.71064,85.301314 620.87453,78.235043 703.38546,71.446173 785.895,64.640331 868.40733,57.868433 881.8904,56.761858 1206.3323,30.159873 1249.5511,26.800438 c 33.5709,-2.609504 153.4015,-11.16015 196.9547,-14.281746 19.4776,-1.492934 38.9594,-2.9313467 58.4327,-4.4788003 15.2013,-1.2079742 30.383,-2.6620649 45.5906,-3.7874415 14.0673,-1.0409957 28.146,-1.9347068 42.2304,-2.7113899 8.9026,-0.4909339 18.2835,1.7756783 26.7262,-1.0912159 7.8769,-2.6747968 -7.9936,-9.468545 -0.883,-6.1901341 -14.3786,6.7448696 -8.8499,4.5870726 -30.5451,11.253053 -12.6023,3.8721658 -25.262,7.5568937 -37.9293,11.2108167 -19.6129,5.657355 -39.2094,11.378625 -58.9099,16.72263 C 1454.0495,43.528707 1312.0476,80.183647 1286.095,86.908564 1154.5976,121.44169 1085.4173,139.39966 950.05519,175.9199 677.44555,249.46904 405.57103,325.80199 135.24539,407.38011 88.413365,421.5732 41.691554,436.13518 -5.2506835,449.95938 c -34.0399855,10.02457 -68.2577875,19.4365 -102.4402265,28.964 -41.00408,11.42886 -82.23936,22.05329 -123.13033,33.89318 -2.74522,0.79487 -5.46746,1.66704 -8.20119,2.50056 z" />
    <path
       style="fill:#f9f9f9"
       id="path18"
       d="m 83.270505,705.23471 c 1.071011,-0.47817 2.172378,-0.89344 3.213032,-1.4345 3.767216,-1.95865 19.238553,-10.70404 20.945573,-11.68819 6.02231,-3.47205 12.10905,-6.84151 17.99423,-10.54122 17.3875,-10.93062 56.68064,-37.53557 71.20889,-47.28632 17.21966,-11.93571 34.56385,-23.69374 51.65899,-35.80712 20.54098,-14.55505 41.04673,-29.1667 61.24433,-44.19463 52.35611,-38.95533 96.78527,-74.17358 147.62509,-115.56386 27.00026,-21.98176 53.83747,-44.16575 80.48471,-66.57414 26.8647,-22.59127 53.36392,-45.61362 80.04587,-68.42042 90.89343,-79.06693 181.17861,-158.84803 273.6079,-236.129032 37.268,-31.160124 54.188,-44.661091 90.42033,-74.0094586 22.54705,-18.4943294 45.76235,-36.1404394 68.77155,-54.0464114 3.2274,-2.511661 6.4856,-4.987613 9.6193,-7.61543 1.5906,-1.333911 5.8915,-2.682592 4.5425,-4.260455 -3.8432,-4.495077 -10.3508,-5.72412 -15.5261,-8.58618 -3.7156,1.241776 -7.4732,2.364233 -11.1467,3.725327 -16.4007,6.076706 -35.0569,13.931113 -50.56602,21.053053 -35.92765,16.498295 -63.47468,30.55774 -98.92882,49.9424326 C 865.00969,6.6334594 841.87466,20.081835 818.56941,33.223674 789.93734,49.990766 761.3574,66.847208 732.6732,83.52495 698.28629,103.51839 663.79254,123.32749 629.35684,143.23677 503.1645,216.19594 377.02525,289.23292 249.78353,360.35634 c -43.41287,24.2662 -87.04197,48.14352 -130.56296,72.21528 -87.298488,47.51261 -131.557182,72.1409 -217.992101,117.20649 -30.071149,15.67855 -60.217179,31.22014 -90.585029,46.31598 -45.31867,22.52789 -96.11162,46.15754 -142.55484,67.12428 -16.66522,7.52349 -33.45047,14.77821 -50.17571,22.16731 -27.78698,11.86632 -36.63507,15.7973 -62.34261,26.31161 -5.03686,2.06006 -10.07335,4.12424 -15.16108,6.05526 -2.11747,0.80367 -8.01526,0.512 -6.44681,2.14587 11.50502,11.98487 14.98005,6.2579 24.70312,0.49356 17.47248,-10.35123 26.01017,-15.35525 44.41298,-26.53833 10.61508,-6.45062 21.31941,-12.76125 31.77053,-19.47425 29.96564,-19.24763 76.60302,-51.14629 104.02037,-70.67239 23.39569,-16.66195 46.41972,-33.8397 69.62959,-50.75955 26.15698,-20.16786 52.56797,-40.01052 78.47095,-60.50359 28.641156,-22.65937 57.162743,-45.48228 85.149917,-68.94462 C 33.243997,372.25737 88.332451,322.70162 146.24758,267.82453 204.03446,213.06897 265.14118,151.57448 321.60801,95.372251 347.60159,69.35169 373.52233,43.258167 399.58873,17.31057 c 22.52482,-22.4221417 45.0238,-44.872205 67.79228,-67.046875 18.77364,-18.284015 37.8176,-36.288805 56.82961,-54.324835 34.35846,-32.59467 69.13264,-64.70284 104.24586,-96.47806 11.9342,-10.54098 23.80106,-21.16476 36.07565,-31.31131 1.39436,-1.15262 2.78904,-2.3056 4.21508,-3.41878 0.60916,-0.47552 2.56306,-0.96915 1.88804,-1.34538 -4.68439,-2.61095 -9.96883,-3.95787 -14.95325,-5.9368 -21.30237,15.18032 -45.24632,26.19261 -68.5572,37.83871 -62.2572,31.10364 -27.33432,13.89832 -97.3779,47.8731 -94.46674,45.4298 -189.32552,90.05353 -284.82375,133.277536 C 143.63164,4.1793812 117.95231,15.302462 57.065999,42.106341 -28.734949,79.317696 -114.55114,116.56945 -201.5295,150.96621 c -12.62741,4.93077 -25.31144,9.7116 -38.07882,14.26687 -1.93008,0.68864 -3.86352,1.36787 -5.79454,2.0539 -4.10945,1.45994 -2.53485,0.62131 -5.01175,2.15309 4.4431,3.01366 8.54047,6.61393 13.32928,9.04098 1.14524,0.58042 2.56305,-0.17851 3.83665,-0.341 3.24524,-0.41402 6.47905,-0.91342 9.71598,-1.38803 19.8173,-2.90568 39.52897,-6.30346 59.25814,-9.7554 10.02578,-1.77152 20.04968,-3.55375 30.07734,-5.31457 14.51882,-2.54943 29.02556,-5.16966 43.562073,-7.61618 62.512242,-10.52093 125.206513,-19.92877 187.868127,-29.50227 29.60633,-4.52329 59.21094,-9.05787 88.8164,-13.5868 33.7525,-4.77603 67.48197,-9.71774 101.2575,-14.32809 35.65944,-4.867511 71.34997,-9.506227 107.04505,-14.105182 104.278,-13.435182 208.67086,-26.056387 313.19045,-37.471466 32.35813,-3.533983 64.74443,-6.804983 97.11664,-10.207475 C 921.67759,23.37096 1038.8609,13.314719 1156.2649,6.7192085 c 26.9969,-1.2747541 14.5882,-0.7604414 37.2233,-1.6071646 0,0 -10.4718,-7.5168574 -10.4718,-7.5168574 v 0 c -21.5294,1.68855923 -9.7091,0.7354531 -35.4584,2.89314252 C 1032.9774,10.61715 918.55207,22.419626 804.16445,34.513192 771.87489,37.974497 739.57474,41.3383 707.29578,44.897109 640.73695,52.235332 568.64149,60.606748 502.28735,68.744171 415.00714,79.447888 374.08265,84.966591 287.05986,96.474336 252.95173,100.98474 218.84795,105.528 184.74199,110.05483 c -30.36716,3.99261 -60.75114,7.85936 -91.101482,11.97783 -19.95554,2.70792 -113.093745,16.00991 -135.779457,19.25209 -18.464313,2.63886 -36.924925,5.30362 -55.390247,7.93542 -15.094254,2.15134 -30.205874,4.18234 -45.288464,6.414 -10.26515,1.51886 -20.50175,3.22483 -30.75263,4.83724 -20.29886,3.12172 -40.60327,6.43669 -61.05963,8.39436 -3.45643,0.33078 -6.92049,0.62659 -10.39126,0.72693 -1.27834,0.0369 -4.68642,-1.25992 -3.82358,-0.31599 3.08246,3.37212 7.33597,5.44742 11.00396,8.17113 0.30693,-0.25474 0.56775,-0.57856 0.92078,-0.76421 2.81245,-1.47898 5.82975,-2.53065 8.75661,-3.7679 12.09481,-5.11274 24.15731,-10.30057 36.18392,-15.57223 C -107.7077,120.23217 -24.138693,81.54806 59.947807,44.021147 108.12762,22.365615 158.93297,-0.43926318 207.01063,-22.177757 c 96.0857,-43.445516 191.92401,-87.433603 287.8175,-131.300863 18.54394,-8.44056 37.04947,-16.96599 55.6318,-25.32166 39.55547,-17.78636 80.02487,-34.1024 117.61104,-55.92411 -3.32865,-3.234 -6.19043,-7.03129 -9.98595,-9.702 -0.60243,-0.4239 -0.99806,1.08396 -1.51256,1.61113 -1.22627,1.25646 -2.46777,2.498 -3.70933,3.73936 -11.04552,11.04383 -22.05777,22.12044 -33.05963,33.20799 -32.87955,33.30149 -65.73887,66.62228 -98.54844,99.99278 -18.23157,18.543258 -36.37369,37.174737 -54.67873,55.645466 C 454.97332,-38.521631 327.15088,89.407554 321.35024,95.214207 264.88223,151.41753 203.77862,212.90889 145.99042,267.6655 88.176848,322.44617 32.887912,372.19164 -28.136286,423.33858 c -27.991483,23.46083 -56.330364,46.52094 -85.170324,68.93055 -26.25643,20.40213 -53.38879,39.65131 -80.08319,59.47696 -23.82609,16.52286 -47.40837,33.40297 -71.47828,49.56858 -40.48478,27.19002 -67.57907,43.74233 -108.29174,67.87923 -18.6623,11.06413 -40.25349,23.39128 -59.56435,33.73064 -6.53164,3.49715 -13.17857,6.77459 -19.76785,10.16189 -8.15662,3.83588 -21.62942,5.89855 -1.75316,14.6632 1.84399,0.81313 3.49344,-2.013 5.28203,-2.94167 4.57112,-2.37339 9.17488,-4.68409 13.79392,-6.96283 12.60212,-6.2171 49.67801,-24.08298 58.96081,-28.56686 42.97641,-20.93849 66.01672,-32.04209 110.56153,-54.34092 25.56262,-12.79648 51.06216,-25.71889 76.54307,-38.67729 30.22869,-15.37289 60.51404,-30.63769 90.585274,-46.31636 34.374888,-17.92252 68.603519,-36.12623 102.7477359,-54.48439 38.5209811,-20.71139 76.8297751,-41.81503 115.2446601,-62.72255 43.52104,-24.07183 87.15018,-47.94923 130.5631,-72.2155 94.076,-52.5851 168.41073,-95.21603 261.56574,-148.87125 39.37616,-22.6798 78.66873,-45.50441 118.00774,-68.24857 34.43565,-19.90924 68.70531,-40.10871 103.31625,-59.711653 29.2409,-16.561462 58.82044,-32.51778 88.23066,-48.776669 55.63161,-29.3926507 75.66714,-41.0511834 130.14554,-66.208127 14.67191,-6.775171 29.55653,-13.0895 44.50357,-19.233937 14.18395,-5.830769 37.24475,-14.550768 53.17755,-19.113396 3.8709,-1.108497 7.8723,-1.696426 11.8084,-2.544639 -2.763,-2.511408 -4.6622,-6.646972 -8.2891,-7.534225 -1.9116,-0.467633 -2.3286,3.188971 -3.6987,4.601618 -2.7661,2.851931 -5.7327,5.504271 -8.6834,8.164702 -4.7474,4.280305 -9.597,8.445843 -14.4079,12.654674 -16.758,14.660854 -33.58713,29.240225 -50.31268,43.938183 -29.52067,25.736328 -57.56413,50.177229 -87.18394,76.036205 -19.33726,16.882006 -38.73419,33.696038 -57.99655,50.663464 -21.47351,18.91514 -42.77655,38.02303 -64.21011,56.98342 -78.25552,69.22577 -67.83877,59.87858 -148.57536,130.24325 -58.10896,49.66937 -101.01106,87.12856 -160.61375,134.94085 -85.42052,68.52292 -174.15724,132.96887 -266.65117,191.62723 -36.7744,22.74971 -40.38741,25.61005 -74.79052,44.89677 -6.17846,3.46371 -12.45286,6.75496 -18.737135,10.02275 -7.936705,4.12705 -14.263304,7.28134 -22.275408,10.62937 -1.121329,0.46857 -2.290635,0.81286 -3.435952,1.21929 z" />
    <circle
       id="path19"
       style="fill:#b3b3b3;stroke:#000000"
       cx="895.03278"
       cy="582.93201"
       r="0.43283939" />
    <path
       style="fill:#000000"
       id="path20"
       d="m 21.419245,655.93284 c 0.742089,-7.27748 1.959605,-14.49158 3.188245,-21.69892 2.327966,-13.52755 4.988191,-26.99593 7.826635,-40.42481 3.582819,-16.26964 6.674548,-32.63467 9.386828,-49.06977 4.008913,-24.29086 7.046875,-48.73142 10.177821,-73.14785 4.920546,-36.94252 8.598641,-74.02294 11.524207,-111.17138 3.022776,-38.87865 4.87448,-77.83228 6.663419,-116.78319 1.374164,-33.17495 3.432499,-66.31259 5.837837,-99.42693 1.712296,-20.88739 3.891478,-41.73902 5.343851,-62.647826 0.150033,-2.15992 1.691049,-27.901085 1.828748,-30.193747 1.314769,-23.943899 3.271677,-47.8494461 6.179944,-71.652468 1.839498,-16.174552 4.134363,-32.292327 6.209589,-48.437241 1.653854,-12.244021 2.842504,-24.546935 3.796561,-36.863668 0.456921,-8.5583 0.8874,-17.11875 1.35253,-25.67765 0.13968,-2.52665 0.23765,-5.0553 0.35455,-7.58301 0.0231,-0.499 0.0311,-0.99917 0.0765,-1.49664 0.0226,-0.2481 0.34905,-0.6234 0.12707,-0.73651 -4.247645,-2.16457 -8.700799,-3.89968 -13.0512,-5.84951 0.314886,0.58977 0.683036,1.15407 0.944659,1.76932 0.684831,1.61051 1.786886,5.23434 2.240394,6.72916 1.630729,5.37507 3.074217,10.80655 4.605416,16.21046 4.865211,18.16002 9.991041,36.249194 15.215441,54.308797 5.91482,20.508042 11.35498,41.143447 16.44807,61.8693023 3.71061,15.8610356 6.4458,31.9264207 9.60538,47.9011017 2.83212,14.700236 5.67759,29.398308 8.40994,44.117591 4.06036,20.961998 8.9051,41.761838 13.97172,62.500378 7.19225,28.34647 14.81589,56.58482 22.4299,84.82109 11.43222,45.09915 23.48522,90.03689 35.66422,134.93931 12.8846,49.66525 26.7612,99.05974 40.63856,148.45355 9.71349,35.10869 19.34975,70.24068 28.74394,105.43631 6.532,24.67985 12.63347,49.47022 18.99082,74.19481 3.31749,13.26441 6.79012,26.48892 10.174,39.73632 0.91868,3.3998 1.43145,6.90764 2.42647,10.28838 0.10011,0.34014 1.03253,3.35539 1.65413,3.7391 4.56918,2.82051 9.41736,5.1618 14.12604,7.74271 0.5831,-0.36701 1.24324,-0.63347 1.7493,-1.10102 3.77732,-3.48994 4.2482,-10.27953 4.77949,-15.00319 0.89642,-13.10036 0.4959,-26.24294 0.54484,-39.36236 0.0192,-27.06779 1.5532,-54.10159 2.71298,-81.13589 1.3519,-29.15907 2.66708,-58.31979 4.03036,-87.47836 1.24506,-29.85951 3.38658,-59.66287 6.1559,-89.41639 3.23541,-32.10026 6.70606,-64.17636 10.12492,-96.25749 3.14513,-35.52774 7.26342,-70.95881 10.64683,-106.46276 2.95236,-30.39226 5.46574,-60.82361 7.67508,-91.27817 2.07448,-26.74864 3.37333,-53.545865 4.84501,-80.331791 1.21091,-25.043777 3.44281,-50.017373 5.51821,-74.9993057 1.81179,-19.9523673 3.51307,-39.9152153 5.36664,-59.8637493 1.07474,-13.091066 2.44047,-26.154803 3.78214,-39.220384 1.39205,-12.1335 2.55805,-24.29135 4.07002,-36.41083 1.30698,-9.73468 2.81548,-19.43968 4.27246,-29.1525 0.57839,-3.88702 0.26969,-2.03018 0.91082,-5.57303 0,0 -13.00948,-6.90793 -13.00948,-6.90793 v 0 c -0.58175,3.62569 -0.30681,1.73543 -0.81076,5.67279 -1.30648,9.79273 -2.51874,19.59834 -3.87782,29.38439 -1.5543,12.11586 -2.85776,24.25749 -4.16486,36.40218 -1.29104,13.115341 -2.63426,26.2275 -3.52223,39.378202 -1.60191,20.055052 -3.03267,40.122838 -4.80144,60.164457 -2.0223,25.016824 -4.33819,50.013533 -5.4056,75.098043 -1.45799,26.793504 -2.79549,53.595078 -4.74589,80.358878 -2.12972,30.50982 -4.33956,61.01715 -7.24402,91.46494 -3.52359,35.47161 -6.83909,70.96525 -10.74594,106.39758 -3.43486,32.07937 -6.97144,64.14868 -10.17051,96.25265 -1.47619,15.73065 -2.99525,31.46556 -4.13248,47.22554 -0.6636,9.19631 -1.12998,18.7154 -1.58948,27.9231 -0.23627,4.73448 -0.45836,9.46966 -0.68754,14.2045 -1.32652,29.16849 -2.61833,58.3383 -3.98332,87.50504 -1.238,26.92823 -2.66967,53.84877 -3.47093,80.79531 -0.2683,12.96152 -0.21194,25.94877 -1.14864,38.88375 -0.41253,3.38824 -1.08773,11.38608 -4.32998,13.53675 -0.34939,0.23176 -0.81522,0.19644 -1.22282,0.29466 3.79948,2.38971 7.51526,4.91799 11.39844,7.16913 0.47548,0.27565 -0.83116,-0.74253 -1.11962,-1.21034 -2.11768,-3.43438 -2.27047,-8.74329 -3.57996,-12.49768 -3.65539,-13.38716 -7.52458,-26.71445 -11.03209,-40.14205 -6.60103,-24.83105 -12.87229,-49.75055 -19.67092,-74.53015 -9.62543,-35.39929 -19.52451,-70.72142 -29.77465,-105.94571 -14.22957,-49.40826 -28.08187,-98.9247 -41.12036,-148.66239 -11.73661,-44.722 -23.43949,-89.45371 -34.46402,-134.35789 -7.04783,-28.169 -14.55119,-56.21846 -21.57952,-84.39175 -4.99932,-20.60422 -9.72756,-41.27215 -13.43666,-62.154112 C 155.6134,77.354723 152.7337,62.656424 149.86928,47.955742 146.66626,31.925519 143.87059,15.806514 140.08957,-0.10313659 134.8417,-20.882844 129.18875,-41.551822 123.33301,-62.168333 c -4.99635,-17.946694 -9.93087,-35.912837 -14.52383,-53.967627 -2.21501,-8.29573 -4.24856,-16.64415 -6.79215,-24.84859 -4.659448,-2.36597 -9.188463,-5.00858 -13.978342,-7.09792 -0.291579,-0.12718 -0.108967,0.62842 -0.124815,0.94614 -0.152355,3.05434 0.07371,6.13214 -0.160759,9.18596 -0.298619,8.58723 -0.743503,17.16861 -1.126765,25.75221 -0.783828,12.35694 -1.851634,24.701073 -3.391649,36.988064 -1.979003,16.190654 -4.472629,32.319119 -5.999192,48.564036 -2.573047,23.9703418 -4.266773,48.020203 -5.485574,72.09683 -1.793608,31.007499 -4.000815,61.98823 -6.997748,92.90533 -0.445647,5.38775 -0.950227,10.77095 -1.336941,16.16325 -1.993932,27.80323 -2.909487,55.67671 -4.09491,83.52089 -0.524933,12.55443 -1.097195,26.95025 -1.742416,39.48167 -1.326541,25.76393 -3.22813,51.49312 -4.964789,77.23129 -2.899917,37.07861 -6.516636,74.10105 -11.842434,110.92003 -3.647493,24.2119 -6.940181,48.47873 -11.119882,72.60782 -2.799151,16.37913 -5.917614,32.70167 -9.533002,48.92219 -2.896918,13.39396 -5.605027,26.8271 -8.194965,40.28383 -1.317663,7.11663 -2.6021698,14.23653 -3.6981356,21.39137 z" />
    <path
       style="fill:#000000"
       id="path21"
       d="m -224.61682,-119.8613 c 4.16996,5.12849 7.89685,10.58733 11.75555,15.94843 5.14656,7.266883 10.75065,14.192021 16.12986,21.283777 6.15584,8.115636 6.79538,9.128668 12.97606,17.726578 2.50745,3.52347 5.00045,7.057275 7.52236,10.57041 9.99423,13.922381 20.45049,27.489062 31.29514,40.762534 8.87499,10.8626703 21.18214,25.232075 30.21392,35.857509 5.33919,6.150276 10.64307,12.33138 16.017568,18.450827 9.407477,10.711438 25.915482,29.118776 35.376688,39.724574 19.216029,21.540731 38.404455,43.105931 57.5678172,64.693511 C 27.23293,182.456 59.773489,220.15384 92.251385,257.9029 c 27.721035,32.09946 55.439235,64.1982 82.902515,96.51875 31.47191,37.11055 62.73751,74.39637 93.97782,111.70212 27.69514,33.55924 55.89782,66.68709 84.50403,99.47132 27.79883,31.42251 55.34062,63.0729 83.38946,94.27313 19.07846,21.08867 38.34081,42.00957 57.8352,62.71426 7.75688,8.35883 15.6724,16.57368 23.91831,24.45187 5.27086,4.94751 10.26728,7.34459 17.6635,10.66416 0.84922,0.38115 1.31298,-1.52756 1.32464,-2.45831 0.007,-0.55951 -0.21646,-1.09797 -0.32468,-1.64696 -2.04683,-5.28684 -4.97384,-10.21415 -7.89352,-15.06049 -4.71447,-7.41303 -9.33193,-14.88279 -13.90815,-22.38167 -6.45932,-10.1779 -12.59011,-20.55795 -18.86198,-30.85102 -6.64327,-10.48783 -13.27426,-20.98037 -19.8365,-31.51968 -6.50867,-10.63949 -12.60688,-21.52286 -18.73426,-32.38437 -6.24272,-11.00347 -12.20322,-22.16065 -18.11509,-33.34421 -6.77253,-12.79377 -13.29132,-25.71901 -19.85225,-38.6219 -8.29106,-16.38524 -16.5545,-32.78458 -24.71991,-49.23282 -9.57301,-19.89522 -19.17922,-39.7749 -28.58252,-59.75108 -10.7545,-22.01013 -21.15174,-44.19076 -31.58791,-66.35259 -9.44502,-20.03486 -18.64181,-40.1854 -27.71296,-60.39185 -9.46135,-21.25 -18.30782,-42.76522 -27.00932,-64.33499 -10.16441,-25.05312 -20.00649,-50.23554 -29.57932,-75.52021 -12.14866,-32.09819 -23.93629,-64.32734 -35.56239,-96.617768 -10.51658,-29.883041 -21.665,-59.532866 -33.20204,-89.03491 -9.93707,-25.207769 -20.47057,-50.173551 -31.15264,-75.072712 -7.45021,-17.32662 -14.80231,-34.6953 -22.27399,-52.0126 -3.01843,-6.89483 -5.76216,-13.90198 -8.54213,-20.89435 -1.6672,-3.95204 -3.25182,-7.93714 -4.78958,-11.94141 -1.05884,-2.82091 -2.25501,-5.5909 -3.23156,-8.44212 -0.0226,-0.0202 -0.062,-0.0903 -0.0679,-0.0606 -1.15707,5.78544 3.17559,1.63905 -11.77941,-4.90295 -0.905221,-0.39598 1.36889,1.42558 2.03102,2.15894 2.5687,2.84504 3.72078,4.29403 6.28298,7.36296 11.73742,14.60792 24.33023,28.46925 37.14722,42.1277 22.65619,24.23521 44.8427,48.904544 67.02556,73.572121 27.78782,31.406512 56.20519,62.2427526 84.87403,92.84443 32.69659,34.961361 66.63739,68.720229 100.51712,102.525909 31.07189,30.89595 62.45285,61.47804 93.83919,92.05369 31.53872,30.78238 62.91718,61.72826 94.29833,92.67115 30.33208,29.9986 60.76558,59.89272 90.75412,90.23587 19.10437,19.52547 38.38428,38.86953 58.33905,57.52758 4.82187,4.44603 9.72974,8.79691 14.63663,13.14836 0,0 13.28035,5.39696 13.28035,5.39696 v 0 c -5.11792,-4.41315 -10.23121,-8.83223 -15.25196,-13.3563 C 727.74611,454.3614 707.97267,434.86109 688.4656,415.08485 658.26421,384.73106 627.77232,354.67241 597.24829,324.64353 565.99127,293.74435 534.73054,262.84721 503.31191,232.11262 471.77036,201.44994 440.20209,170.81386 408.94832,139.85703 375.06812,106.16853 341.32259,72.341673 308.65494,37.467333 280.10889,7.03461 252.00063,-23.792422 224.40218,-55.088596 c -21.95972,-24.485226 -43.97409,-48.921324 -66.1328,-73.226834 -12.58756,-13.476 -24.97964,-27.13545 -36.33225,-41.68358 -2.34236,-2.92157 -3.59496,-4.52531 -5.91837,-7.28532 -0.6056,-0.71941 -1.07191,-1.59912 -1.84556,-2.13371 -4.50393,-3.11221 -9.03515,-6.23761 -13.90078,-8.74697 -1.147232,-0.59166 -1.426274,1.18721 -1.553773,1.67261 1.123338,2.84076 2.197813,5.7004 3.362353,8.52625 1.55807,4.03027 3.10561,8.06099 4.86765,12.00714 2.93993,7.08273 5.80223,14.19749 9.01782,21.16277 7.92182,17.41944 15.61891,34.94096 23.29925,52.467869 10.77782,24.859142 20.99659,49.950863 31.20114,75.049664 11.74983,29.561695 23.12462,59.268754 33.75778,89.253125 11.67263,32.142372 23.10347,64.372992 35.07078,96.407582 9.46977,25.24649 19.17908,50.40406 29.27163,75.40875 8.62345,21.56232 17.39029,43.07028 26.80841,64.30064 9.05893,20.24546 18.29481,40.41234 27.79118,60.45675 10.47535,22.12831 21.00809,44.22889 31.54178,66.32941 9.385,19.96971 18.94957,39.85104 28.50628,59.73901 7.92147,16.44378 16.14903,32.73732 24.30465,49.06595 6.50074,12.88209 12.96176,25.78503 19.66528,38.5634 5.89615,11.19007 11.81948,22.3654 18.06624,33.36491 6.11959,10.87802 12.24097,21.75968 18.70182,32.43979 6.5851,10.5247 13.14459,21.06258 19.85132,31.51028 6.24673,10.23039 12.34466,20.55078 18.63762,30.75313 4.56476,7.45808 9.09426,14.93442 13.78054,22.31749 2.85101,4.70018 5.54025,9.51757 7.78126,14.53851 1.66831,4.89394 4.62104,3.8991 12.24211,8.40435 0.58718,0.34712 -1.18948,-0.67561 -1.73477,-1.08541 -0.79534,-0.59772 -1.51806,-1.28641 -2.27709,-1.92961 -8.54397,-7.91408 -16.6767,-16.25419 -24.69997,-24.69314 -20.09974,-20.76345 -39.8365,-41.87296 -59.26165,-63.26932 -28.07664,-31.22184 -55.91489,-62.65833 -83.51077,-94.30604 -28.76256,-32.82098 -57.11438,-65.99407 -84.92851,-99.62463 -31.2303,-37.15832 -62.57004,-74.22466 -93.60106,-111.5501 -27.51069,-32.40771 -55.33702,-64.54024 -83.1933,-96.651 C 70.337912,224.5652 37.496397,186.78481 4.2414477,149.3696 -14.885656,127.86433 -33.961267,106.31444 -53.061018,84.785123 -70.146842,65.52591 -87.379686,46.394432 -104.08275,26.798777 -116.33772,12.29122 -121.90911,5.8774042 -133.68257,-8.7542575 -144.25041,-21.887612 -154.39086,-35.31403 -164.1261,-49.073196 c -2.46702,-3.48672 -4.89768,-6.999022 -7.34651,-10.498533 -2.81023,-4.004322 -9.33039,-13.35184 -12.41339,-17.540457 -5.19981,-7.064554 -10.80191,-13.836317 -15.77016,-21.073027 -3.71657,-5.253167 -7.1761,-10.701597 -11.26199,-15.682467 z" />
    <circle
       id="path22"
       style="fill:#00ffff;stroke:#000000"
       cx="796.15784"
       cy="618.18304"
       r="0.43283939" />
  </g>
  <g
     inkscape:groupmode="layer"
     id="layer2"
     inkscape:label="Text">
    <text
       xml:space="preserve"
       id="text6"
       style="font-size:133.333px;font-family:'Linux Libertine Display G';-inkscape-font-specification:'Linux Libertine Display G';text-align:center;white-space:pre;shape-inside:url(#rect6);shape-padding:0.429929;display:inline;fill:#ffffff"
       transform="translate(-336.61035,-18)"
       inkscape:label="main"><tspan
         x="373.1416"
         y="340.28125"
         id="tspan3"><tspan
           style="font-size:192px"
           id="tspan1">zelez</tspan><tspan
           style="font-family:'Mabry Pro';-inkscape-font-specification:'Mabry Pro, Normal';baseline-shift:baseline"
           id="tspan2"> </tspan></tspan></text>
  </g>
</svg>
