<?xml version="1.0" encoding="UTF-8" standalone="no"?>
<!-- Created with Inkscape (http://www.inkscape.org/) -->

<svg
   width="1080"
   height="196"
   viewBox="0 0 285.74997 51.858328"
   version="1.1"
   id="svg1"
   inkscape:version="1.3.2 (091e20e, 2023-11-25, custom)"
   sodipodi:docname="background.svg"
   xmlns:inkscape="http://www.inkscape.org/namespaces/inkscape"
   xmlns:sodipodi="http://sodipodi.sourceforge.net/DTD/sodipodi-0.dtd"
   xmlns="http://www.w3.org/2000/svg"
   xmlns:svg="http://www.w3.org/2000/svg">
  <sodipodi:namedview
     id="namedview1"
     pagecolor="#505050"
     bordercolor="#eeeeee"
     borderopacity="1"
     inkscape:showpageshadow="false"
     inkscape:pageopacity="0"
     inkscape:pagecheckerboard="false"
     inkscape:deskcolor="#505050"
     inkscape:document-units="mm"
     showborder="true"
     borderlayer="true"
     labelstyle="default"
     inkscape:clip-to-page="false"
     inkscape:zoom="1.0610059"
     inkscape:cx="396.79327"
     inkscape:cy="184.25911"
     inkscape:window-width="2560"
     inkscape:window-height="1387"
     inkscape:window-x="2552"
     inkscape:window-y="-8"
     inkscape:window-maximized="1"
     inkscape:current-layer="layer1" />
  <defs
     id="defs1" />
  <g
     inkscape:label="Layer 1"
     inkscape:groupmode="layer"
     id="layer1">
    <rect
       style="fill:#000000;stroke-width:0.264583"
       id="rect1"
       width="291.2645"
       height="57.105793"
       x="-2.9924433"
       y="-2.9924433" />
    <path
       style="fill:#333333;stroke-width:0.264583"
       id="path1"
       d="m -31.739842,33.209349 c 1.436587,-0.283517 0.839687,-0.162145 2.559166,-0.52106 4.83816,-1.009896 9.734068,-1.633022 14.626389,-2.319364 5.9114587,-0.789212 11.8153169,-1.707044 17.6134378,-3.127523 5.0876028,-1.246411 9.7399402,-2.66499 14.6698882,-4.473562 2.708189,-0.993512 5.36178,-2.129957 8.04267,-3.194936 6.583112,-3.104042 10.480599,-4.723259 16.736529,-8.581035 5.919375,-3.6502348 12.967195,-8.8841573 18.416974,-13.1478967 3.133725,-2.4517304 6.178161,-5.0154931 9.266137,-7.5246022 2.957462,-2.4030631 5.913448,-4.8079421 8.870172,-7.2119131 3.449915,-2.660546 11.606466,-9.164019 15.632855,-11.498714 2.439094,-1.414306 5.006192,-2.637068 7.662884,-3.581217 2.54507,-0.904484 5.18114,-1.660369 7.86783,-1.938187 6.94459,-0.718106 11.9596,0.691092 18.75688,1.90156 3.22329,0.902393 6.47929,1.695212 9.66987,2.70718 6.46963,2.051992 12.75734,4.591951 18.97852,7.290883 6.07848,2.637022 13.06576,5.951136 18.97476,8.933243 3.15891,1.594214 6.27361,3.2745662 9.41041,4.9118494 3.09178,1.7452281 6.22375,3.4210844 9.27532,5.2356844 2.25767,1.3425115 4.4657,2.76894694 6.64693,4.2323858 2.83941,1.9050296 5.67282,3.8238425 8.41169,5.870794 4.85093,3.6254474 10.42505,8.2981694 14.69829,12.6264524 2.2679,2.297116 4.32552,4.792734 6.48829,7.189102 1.88131,2.451571 3.86668,4.826696 5.64394,7.354718 4.62967,6.585355 8.49884,13.704126 10.86824,21.422371 1.73449,5.650029 1.94018,8.391281 2.82002,14.16736 0.58875,4.634341 0.80675,9.307666 1.35271,13.946193 0.24573,2.087766 0.4854,4.180591 0.89091,6.243283 0.70879,3.605336 1.58034,6.879256 3.64771,9.969432 0.8849,1.3227 2.11556,2.37798 3.17334,3.56697 4.71772,3.06143 5.98605,4.24447 12.31364,6.03446 3.66951,1.03805 11.48972,0.99156 14.93846,0.90403 6.125,-0.15545 14.48662,-0.89653 20.51349,-1.36788 12.50174,-1.12524 25.02365,-1.99974 37.5413,-2.92263 6.87718,-0.50703 16.83621,-1.20856 23.73281,-1.93248 3.56775,-0.37449 7.12102,-0.87592 10.68152,-1.31388 3.1165,-0.67226 6.40969,-0.78315 9.34953,-2.01677 12.62692,-5.298486 19.00256,-19.94002 19.60126,-32.829906 0.15912,-3.425555 -0.44374,-6.844122 -0.66562,-10.266185 -0.89357,-3.294454 -1.48555,-6.68596 -2.68078,-9.883367 -2.23877,-5.989169 -6.15032,-12.657585 -10.28343,-17.543788 -2.21612,-2.61992 -4.60314,-5.14244 -7.32075,-7.237628 -7.67768,-5.919266 -15.0403,-8.273285 -23.9916,-12.102455 -4.39695,-1.064866 -8.73271,-2.4252837 -13.19088,-3.1945971 -8.72723,-1.5059895 -20.1717,-2.1889783 -28.96854,-1.2125211 -6.03301,0.6696718 -11.98846,1.9642111 -17.9043,3.3238462 -16.28765,3.743379 -25.86612,7.299793 -41.94154,12.553072 -7.65355,2.814352 -15.35621,5.4986 -22.96066,8.443056 -15.83597,6.131711 -32.52718,13.270888 -48.00582,20.225313 -8.13482,3.654907 -16.23265,7.39353 -24.28679,11.22294 -19.04882,9.056923 -29.86018,14.693902 -48.65743,24.23116 -7.98496,4.125196 -15.95091,8.287388 -23.954868,12.375584 -7.955467,4.063426 -15.860998,8.231106 -23.922907,12.079036 -16.764058,8.00145 -32.093749,14.56814 -49.527479,20.89249 -19.38226358,7.03121 -22.9068161,7.5502 -42.045784,12.64664 -15.084392,2.79841 -17.561096,3.68578 -32.140193,4.88862 -3.994134,0.32954 -8.00708,0.36535 -12.01062,0.54802 0,0 2.07708,1.49173 2.07708,1.49173 v 0 c 3.914547,-0.25255 7.840591,-0.36564 11.74364,-0.75766 14.279377,-1.43418 16.826888,-2.34858 31.599203,-5.29953 19.1100619,-5.38707 22.0565202,-5.82466 41.469028,-13.05355 15.905025,-5.92277 34.18862,-13.67861 49.461923,-20.94473 8.961577,-4.26338 39.076987,-19.940092 47.844427,-24.476702 8.06002,-4.093948 16.08493,-8.257762 24.18007,-12.281844 16.73303,-8.317976 31.78482,-15.500001 48.83509,-23.119953 15.97871,-7.141054 31.83798,-13.860531 48.19288,-20.09331 7.64993,-2.915354 15.39927,-5.562843 23.09891,-8.344265 15.95678,-5.046654 26.20235,-8.731052 42.40559,-12.208219 6.02469,-1.2928812 12.10024,-2.4421645 18.2318,-3.0526593 9.03264,-0.8993473 20.11124,-0.2408399 29.05379,1.3492972 4.48143,0.7968751 8.83584,2.1910891 13.25375,3.2866341 8.74254,3.202209 11.80115,3.615975 19.51744,9.532732 2.71343,2.080619 5.10288,4.582871 7.32189,7.184352 4.17039,4.88923 8.06379,11.454061 10.33513,17.461828 1.20263,3.181001 1.80633,6.557253 2.70952,9.83588 0.23209,3.40433 0.8455,6.804019 0.69625,10.212988 -0.56661,12.943625 -6.89613,27.156841 -19.50781,32.494606 -2.89983,1.227325 -6.14315,1.386825 -9.21472,2.080245 -3.52724,0.45768 -7.0461,0.98556 -10.58175,1.37303 -6.83765,0.74933 -16.84763,1.46414 -23.66462,1.97608 -4.09734,0.3077 -8.196,0.59773 -12.29292,0.91095 -4.16075,0.3181 -8.31884,0.67063 -12.48005,0.98298 -4.30421,0.32309 -8.61068,0.61555 -12.91603,0.92333 -6.57228,0.46264 -14.11822,1.10016 -20.74315,1.17019 -2.80619,0.0297 -5.6185,0.006 -8.41634,-0.21242 -2.26089,-0.17629 -4.48141,-0.70626 -6.73386,-0.96889 -0.79661,-0.0929 -1.66174,0.20708 -2.404,-0.0966 -1.50167,-0.61431 -2.75311,-1.71751 -4.12966,-2.57626 -1.08048,-1.16574 -2.33182,-2.19378 -3.24146,-3.49723 -2.1394,-3.065589 -3.0726,-6.320647 -3.83176,-9.938123 -1.39168,-6.63153 -1.4828,-13.528587 -2.32834,-20.232923 -0.87996,-5.702339 -1.13164,-8.673864 -2.84498,-14.249193 -2.4057,-7.828267 -6.31807,-14.917528 -11.02171,-21.588793 -1.79055,-2.539572 -3.78532,-4.928828 -5.67798,-7.393242 -2.15198,-2.401377 -4.19393,-4.906103 -6.45595,-7.204129 -2.22396,-2.259362 -4.5827,-4.386349 -6.98697,-6.452795 -11.19444,-9.6215182 -23.87519,-17.2456765 -36.79782,-24.2905752 -3.13925,-1.6360848 -6.25668,-3.3147178 -9.41774,-4.9082548 -5.92932,-2.989055 -12.91937,-6.305471 -19.01912,-8.946842 -6.24586,-2.704642 -12.51909,-5.228531 -19.01553,-7.277742 -3.20286,-1.010298 -6.47094,-1.800836 -9.70642,-2.701253 -6.77406,-1.203714 -12.0659,-2.660806 -18.99963,-1.925209 -2.69099,0.285486 -5.324,1.080937 -7.865331,2.010781 -2.650503,0.969787 -5.212488,2.212205 -7.634867,3.66056 -3.581556,2.141437 -12.410252,9.310804 -15.395916,11.670709 -2.938746,2.414722 -5.865577,4.844018 -8.816237,7.244166 C 61.743756,-5.9236757 56.097418,-1.2779189 49.456117,3.36273 46.4157,5.4872408 43.317003,7.5338201 40.138656,9.4458328 33.520602,13.427083 30.252183,14.720524 23.322984,17.930142 c -2.697653,1.046911 -5.367309,2.169041 -8.09296,3.140733 -4.952607,1.765601 -9.6913445,3.147412 -14.80006527,4.342026 -5.85000463,1.367954 -11.80067373,2.239526 -17.75459073,2.999502 -4.292828,0.557051 -8.608123,1.030499 -12.884646,1.706723 -1.228942,0.194326 -2.445229,0.462754 -3.672626,0.666618 -0.357055,0.05931 -0.715645,0.108977 -1.073467,0.163462 z" />
    <circle
       id="path2"
       style="fill:#333333;stroke:#000000;stroke-width:0.264583"
       cx="57.604534"
       cy="128.92442"
       r="0.033215877" />
    <path
       style="fill:#333333;stroke-width:0.264583"
       id="path3"
       d="m 194.67918,124.49664 c -1.18123,-2.21077 -2.56943,-4.83679 -3.77692,-6.90327 -3.698,-6.32877 -7.93864,-13.03578 -11.91351,-19.08915 -3.84957,-5.862555 -7.80539,-11.654678 -11.6921,-17.492678 -4.5695,-6.863551 -9.11765,-13.741281 -13.67648,-20.611922 -17.58694,-26.665439 -34.7675,-53.5958869 -51.9118,-80.547039 0,0 -1.36784,-0.601074 -1.36784,-0.601074 v 0 c 17.5092,26.8723821 34.85123,53.852765 52.34211,80.737088 8.60084,13.260644 15.83688,24.273004 24.12273,37.552291 3.91972,6.281924 7.50691,12.212594 11.01312,18.666364 1.39307,2.56418 2.15746,4.23636 3.31036,6.6762 z" />
    <path
       style="fill:#333333;stroke-width:0.264583"
       id="path4"
       d="m 2.8977645,-64.711177 c 2.2804067,3.08705 2.4039777,3.220498 5.3414885,7.513206 1.929515,2.819681 3.796416,5.681856 5.7247,8.502377 6.147645,8.99223 14.904448,21.616387 21.130623,30.124428 4.670462,6.382168 9.494917,12.6502041 14.242375,18.97530603 C 71.103746,28.596307 94.295652,55.72127 119.27853,81.122336 c 16.61256,16.890638 21.76829,21.217924 39.11181,37.133124 17.10992,15.22789 34.88849,29.67861 52.99601,43.69713 4.26351,3.30073 8.58149,6.53051 12.87223,9.79576 0,0 1.86888,0.74393 1.86888,0.74393 v 0 c -4.43199,-3.32059 -8.89527,-6.59982 -13.29598,-9.96176 -18.39717,-14.05458 -36.42047,-28.60558 -53.7326,-43.98518 C 141.65265,102.57113 136.58817,98.34905 119.90336,81.383065 95.020573,56.08094 71.920988,29.052898 50.386863,0.85705314 45.760846,-5.4140631 41.044627,-11.61963 36.508814,-17.956296 28.756443,-28.78659 23.595605,-36.66736 16.50858,-47.580155 c -1.796478,-2.766269 -3.556073,-5.556314 -5.334109,-8.33447 -1.140251,-1.785522 -2.2669131,-3.579797 -3.4207546,-5.356567 -0.412545,-0.635267 -0.8520147,-1.25264 -1.2780222,-1.878959 z" />
    <path
       style="fill:#333333;stroke-width:0.264583"
       id="path5"
       d="m 257.99526,107.53919 c -2.13569,-1.95154 -2.24802,-2.09182 -5.04002,-4.37258 -4.83147,-3.946787 -9.78275,-7.745259 -14.61839,-11.686924 C 229.01647,83.882393 221.49241,77.45287 212.1456,69.566892 177.11699,39.866249 140.6121,11.97402 104.16925,-15.951946 c 0,0 -0.73319,-0.292264 -0.73319,-0.292264 v 0 c 7.08564,5.378579 14.1964,10.7242093 21.2569,16.13573767 29.159,22.34894833 58.0376,45.08939233 85.89985,69.04667733 11.65149,10.018549 14.30117,12.385601 25.31451,21.564579 2.85011,2.375403 5.72626,4.719397 8.59342,7.074196 1.74327,1.43175 3.51043,2.83461 5.23786,4.28544 2.45297,2.06018 2.74042,2.36811 4.63495,4.16196 z" />
    <path
       style="fill:#333333;stroke-width:0.264583"
       id="path6"
       d="m 285.25893,-50.251807 c -4.30707,5.850271 -9.37159,11.151492 -14.8885,15.875392 -3.72459,3.189229 -7.47138,6.378765 -11.50595,9.165533 -7.22432,4.990005 -14.81791,9.423014 -22.22686,14.134522 C 225.93535,-5.0967446 215.31945,1.0401514 204.53081,6.862487 190.88049,14.229191 177.09514,21.343431 163.32695,28.487409 129.15089,46.22053 97.028213,62.574294 62.431662,79.632404 23.952889,98.604677 0.76627685,109.48187 -37.395369,127.63598 c -53.862268,24.86459 -28.043087,13.09776 -77.428911,35.36324 0,0 0.0666,0.0442 0.0666,0.0442 v 0 C -65.371746,140.7779 -91.190957,152.54477 -37.328623,127.68008 0.83365302,109.52564 24.019024,98.649027 62.498496,79.676373 110.22771,56.143051 157.5865,31.841929 204.5978,6.906207 c 10.92643,-5.7955928 21.78897,-11.7108535 32.68345,-17.56628 7.81564,-4.458407 15.82976,-8.585609 23.44694,-13.37522 4.20939,-2.64683 8.07797,-5.80682 11.97361,-8.89691 5.77885,-4.583874 11.11531,-9.710203 15.93213,-15.289805 z" />
    <path
       style="fill:#333333;stroke-width:0.264583"
       id="path7"
       d="m -22.560875,-28.046637 c 2.017924,1.012147 4.15195,1.838974 6.068589,3.045062 0.0503,0.03165 -0.166652,0.09351 -0.120714,0.131219 1.281221,1.051762 2.636101,2.010448 3.954151,3.015671 17.7214412,14.6231403 35.726716,28.9211493 54.428746,42.279058 5.501807,3.929659 11.101491,7.720441 16.652235,11.580664 16.811537,10.880717 20.509502,13.633087 38.280085,23.624031 7.273493,4.089287 14.588523,8.115314 22.051703,11.847174 18.5567,9.279017 28.62223,13.066675 47.78192,21.026784 0,0 -0.64666,-0.509902 -0.64666,-0.509902 v 0 C 157.82759,84.642255 149.68982,81.469089 141.70441,77.940515 133.68818,74.398319 125.73913,70.696526 117.89599,66.785997 111.10391,63.399521 104.42853,59.778042 97.813819,56.057016 80.357561,46.237215 76.374285,43.291307 59.867619,32.574092 54.387408,28.743365 48.856471,24.984203 43.426991,21.081909 38.514932,17.5515 33.672655,13.924342 28.845954,10.278104 15.751197,0.38591937 2.9683495,-9.91648 -9.4959949,-20.591207 c -1.2637691,-0.994141 -2.4623561,-2.077262 -3.7913071,-2.982423 -3.922305,-2.671521 -8.081152,-4.929093 -12.372159,-6.932828 z" />
    <circle
       id="path8"
       style="fill:#4d4d4d;stroke:#000000;stroke-width:0.264583"
       cx="-99.249367"
       cy="156.85391"
       r="0.033215877" />
    <path
       style="fill:#4d4d4d;stroke-width:0.264583"
       id="path9"
       d="m 20.250544,-41.14379 c 0.642672,2.932279 0.252292,5.987989 -0.201933,8.91671 -0.334164,2.154602 -1.057011,5.723212 -1.471374,7.836079 -1.551686,8.139991 -3.363918,16.358436 -3.079765,24.70132116 0.0635,1.86450974 0.330887,3.71648094 0.49633,5.57472164 0.354574,1.7495763 0.523135,3.5474039 1.063721,5.2487292 2.88422,9.077188 10.058305,16.183127 17.401963,21.844977 2.647135,2.040901 5.472952,3.838903 8.209426,5.758355 9.689369,5.725861 12.020222,7.357634 22.955342,12.550807 7.878419,3.74152 16.977984,7.234499 25.212331,10.035248 10.694715,3.637595 17.246805,5.299184 28.193835,8.357235 8.69213,2.366537 18.59617,5.009415 27.26551,7.572566 8.9971,2.660054 14.2407,4.208962 22.8182,7.954793 8.95718,3.911634 9.52085,4.550947 16.98414,9.111411 6.56593,4.943237 9.09359,6.352847 14.59505,12.381477 2.00712,2.19945 3.94434,4.49096 5.55609,6.99463 3.4609,5.37612 5.96933,11.80849 7.78885,17.89529 0.91937,3.07554 1.50624,6.24083 2.25935,9.36125 1.80356,12.05321 1.12709,6.0983 2.06908,17.86019 0,0 2.63147,1.31347 2.63147,1.31347 v 0 c -1.01506,-11.82355 -0.31081,-5.83899 -2.14977,-17.94927 -0.75836,-3.13359 -1.35887,-6.30964 -2.27507,-9.40077 -1.75425,-5.91853 -4.30441,-12.68306 -7.64564,-17.93459 -1.60887,-2.52869 -3.56465,-4.8324 -5.58294,-7.04808 -5.53155,-6.07251 -8.10674,-7.5164 -14.71112,-12.495319 -9.4856,-5.63972 -11.76068,-7.434072 -21.53088,-11.668275 -8.7522,-3.793027 -13.50203,-5.145577 -22.67393,-7.81267 -7.73735,-2.249942 -19.44525,-5.379685 -27.11549,-7.456953 C 106.5531,65.322047 99.53741,63.506915 89.01917,59.902081 79.182811,56.530946 73.073,54.025892 63.675492,49.728101 60.685936,48.36088 57.702558,46.969597 54.811752,45.404359 51.56183,43.644677 48.449282,41.642336 45.268049,39.761324 42.578072,37.870505 39.799765,36.099493 37.19812,34.088866 29.973325,28.505335 22.956131,21.506786 20.073903,12.593896 19.525931,10.899368 19.336771,9.1091545 18.968205,7.3667836 18.796983,5.5195109 18.519843,3.6790069 18.45454,1.8249656 18.161918,-6.48302 20.093116,-14.645594 21.667177,-22.739207 c 0.32723,-1.614431 1.256561,-6.142093 1.551195,-7.816061 0.513006,-2.914666 0.991735,-5.918576 0.599226,-8.879756 z" />
    <path
       style="fill:#4d4d4d;stroke-width:0.264583"
       id="path10"
       d="m 217.71572,-62.699656 c 5.46921,6.337536 10.06501,13.363594 14.68886,20.323059 1.27229,1.984803 2.55291,3.964297 3.81689,5.954405 2.82719,4.451379 5.62702,8.920086 8.43491,13.383666 2.78251,4.42323 6.15749,9.759324 8.82596,14.2599456 1.36606,2.3039829 2.6708,4.6437735 4.0062,6.9656602 3.65742,6.6122303 6.86535,13.5632052 8.59,20.9584742 0.64622,2.771002 1.69865,8.772374 0.59241,11.760025 -0.76425,2.063925 -2.44938,3.657314 -3.67406,5.485972 -2.28605,1.793213 -4.3964,3.836447 -6.85814,5.37964 -6.84321,4.289806 -14.89416,7.305577 -22.52878,9.682964 -4.99663,1.555933 -10.07422,2.849414 -15.16351,4.068617 -12.81728,3.07054 -21.81234,4.508508 -34.82891,6.868245 -22.83831,3.918233 -45.84796,6.729764 -68.69215,10.610646 -4.76041,0.808723 -9.52305,1.614204 -14.25557,2.572761 -4.433004,0.897887 -8.822902,1.996813 -13.23435,2.995218 -3.955529,1.069348 -7.947403,2.012336 -11.866586,3.208038 -3.62652,1.106411 -7.208941,2.360121 -10.757927,3.694462 -6.005586,2.257967 -11.873484,4.839592 -17.499808,7.930486 -6.116789,3.360338 -7.175614,4.4015 -12.613138,8.404392 -6.354172,5.74609 -3.392048,2.82733 -8.927695,8.71416 0,0 2.811381,1.7083 2.811381,1.7083 v 0 c 5.413123,-5.9189 2.505699,-2.98909 8.76677,-8.74506 5.341519,-4.035814 6.37245,-5.076648 12.394761,-8.483706 8.792757,-4.974405 18.27567,-8.777552 27.899838,-11.799573 3.874733,-1.216678 7.82112,-2.192144 11.731683,-3.288215 4.379987,-1.016331 8.739585,-2.124919 13.139961,-3.048989 4.6833,-0.983483 9.39372,-1.835571 14.10542,-2.672483 22.75147,-4.041208 45.68909,-6.910326 68.47008,-10.76997 12.56373,-2.236719 22.65891,-3.870285 35.0735,-6.717064 5.1613,-1.183532 10.31328,-2.431976 15.39036,-3.936312 7.81341,-2.31511 16.00455,-5.209919 23.06396,-9.432253 2.54596,-1.522775 4.75173,-3.553029 7.1276,-5.329542 1.29196,-1.857459 3.07735,-3.455379 3.87586,-5.572376 1.11884,-2.966191 -0.0675,-9.23274 -0.72141,-11.953747 -0.5669,-2.359003 -1.30797,-4.676918 -2.12479,-6.961443 -2.37727,-6.6487562 -3.28278,-7.8721011 -6.52479,-14.10168609 -1.34447,-2.32871231 -2.65944,-4.67470681 -4.03341,-6.98613671 -2.46892,-4.1534702 -6.25221,-10.1642202 -8.8062,-14.2551972 -2.77293,-4.441647 -5.53021,-8.893063 -8.30978,-13.330557 -1.23963,-1.979036 -2.49177,-3.95021 -3.73766,-5.925314 -4.46595,-6.829968 -8.89564,-13.714534 -14.03,-20.070125 z" />
    <path
       style="fill:#4d4d4d;stroke-width:0.264583"
       id="path11"
       d="m 91.733562,-74.79032 c 0.342434,0.290555 0.66848,0.601607 1.027303,0.871664 2.321973,1.747565 4.171564,2.894338 6.799194,4.42966 3.032451,1.771859 6.100671,3.481837 9.159081,5.208516 2.72055,1.535938 5.4832,2.998094 8.17771,4.579278 2.57685,1.512139 5.08866,3.132476 7.63299,4.698714 3.74913,2.539725 7.56232,4.987346 11.24738,7.61917 8.04777,5.747625 17.3609,13.118271 25.06846,19.241849 6.96374,5.532624 16.90992,13.523356 23.77981,19.3681517 3.15759,2.6864259 6.22868,5.4728932 9.34302,8.20933981 4.71243,4.70809009 8.80926,8.18215019 12.32774,13.82086849 1.19256,1.911194 2.27125,3.950578 2.85098,6.127451 0.50732,1.904963 0.93503,4.020042 0.35303,5.903531 -1.77891,5.756911 -7.43615,8.638205 -11.78544,11.888186 -4.03309,1.792703 -7.97204,3.814278 -12.09927,5.378106 -4.82581,1.828519 -9.76217,3.365801 -14.72373,4.785254 -5.46871,1.564547 -10.98185,2.995287 -16.54911,4.161602 -14.07072,2.947747 -28.9696,4.921038 -43.2376,6.393799 -7.90466,0.81593 -15.837151,1.335003 -23.755728,2.002504 -28.735861,1.991572 -57.538551,2.67756 -86.2965133,4.245179 -14.4354387,0.786886 -15.3945747,0.944896 -28.9682227,2.037297 -7.988916,0.867142 -11.073746,1.071517 -18.619596,2.326523 -2.069399,0.344178 -4.134242,0.725681 -6.179447,1.192588 -2.525409,0.576535 -5.588577,1.429438 -7.942678,2.66005 -0.866862,0.453154 -1.62478,1.089631 -2.43717,1.634447 0,0 3.076096,1.964614 3.076096,1.964614 v 0 c 0.776089,-0.540721 1.499661,-1.165977 2.328265,-1.622161 3.917847,-2.156957 9.317199,-3.273131 13.621345,-4.095853 7.413919,-1.417143 10.23929,-1.640289 18.126803,-2.652831 13.084275,-1.273347 14.506328,-1.504871 28.4136206,-2.425171 28.5724664,-1.890752 57.2069964,-2.660901 85.7756174,-4.623448 7.947377,-0.648722 15.906628,-1.165471 23.842128,-1.946159 13.01279,-1.280192 30.85171,-3.440716 43.835,-5.999649 5.62512,-1.108681 11.18504,-2.543366 16.71262,-4.065564 14.30232,-3.938608 14.42029,-4.433271 27.45861,-9.84082 4.43821,-3.165808 10.4663,-6.109567 12.33,-11.93075 0.61707,-1.927397 0.14248,-4.107238 -0.39447,-6.058472 -0.61435,-2.232474 -1.75138,-4.314762 -2.99719,-6.266508 -3.65245,-5.7220882 -7.92293,-9.2980258 -12.77114,-14.06230391 -3.19245,-2.77043249 -6.34532,-5.58713879 -9.57734,-8.31129749 -6.57658,-5.5431716 -17.34775,-14.1821866 -23.95403,-19.4431956 -7.48641,-5.961903 -16.94091,-13.500954 -24.75269,-19.1332 -3.61545,-2.606718 -7.35728,-5.033494 -11.03593,-7.55024 -4.08699,-2.473717 -8.14536,-4.995362 -12.26098,-7.42115 -2.76631,-1.630487 -5.58865,-3.16399 -8.38272,-4.746439 -3.41456,-1.933872 -6.856273,-3.840549 -9.977682,-6.236232 -0.328504,-0.252127 -0.619802,-0.549347 -0.929703,-0.824019 z" />
    <path
       style="fill:#4d4d4d;stroke-width:0.264583"
       id="path12"
       d="m -43.704343,-5.8567362 c 0.551003,0.1161026 1.097264,0.2575838 1.653011,0.3483079 3.542234,0.5782622 6.166988,0.8097144 9.923859,1.0881568 3.127523,0.2317978 6.259775,0.3946859 9.389663,0.5920291 4.247729,0.2339705 8.500317,0.3920765 12.7431869,0.7019115 6.1004592,0.4454856 12.1889036,1.0425325 18.2833555,1.5637987 7.2964006,0.89154086 14.6102016,1.6506788 21.8892026,2.6746226 15.362391,2.1610422 32.14919,5.0209718 47.286508,8.4216394 7.575534,1.7018792 15.122456,3.5553112 22.585887,5.6959322 19.1588,5.495021 22.52807,7.417401 40.75675,14.820877 13.24267,6.368568 21.69942,10.063749 34.2376,17.496075 9.30623,5.516512 20.0226,13.137009 28.4485,19.813061 11.07593,8.775745 15.31554,13.160007 25.54286,22.772033 10.7559,10.578942 21.12166,21.550632 31.17173,32.800722 2.84591,3.18574 5.62834,6.42762 8.44252,9.64143 0,0 2.24616,0.94725 2.24616,0.94725 v 0 c -2.85745,-3.23361 -5.68391,-6.49483 -8.57232,-9.70082 -10.169,-11.28714 -20.63995,-22.30624 -31.48399,-32.947923 C 220.51449,81.182275 216.35834,76.880925 205.17762,68.028613 194.67642,59.714304 185.26569,53.283545 173.66589,46.436052 161.29412,39.132856 152.74873,35.4145 139.68427,29.166809 121.45257,21.801261 118.26938,19.959309 99.112519,14.5124 91.675105,12.397705 84.15448,10.573168 76.6086,8.8859377 61.517167,5.5115502 44.428237,2.5871135 29.134197,0.33343556 21.736013,-0.75673587 14.306236,-1.6205363 6.8922555,-2.5975223 0.61067526,-3.2543363 -5.6628725,-3.9931384 -11.952486,-4.5679648 c -24.02382,-2.1956077 -2.987515,0.1786948 -22.762268,-1.773737 -4.056726,-0.4005355 -6.585058,-0.6994313 -10.349566,-1.4630035 -0.588793,-0.1194273 -1.164521,-0.2960576 -1.746781,-0.4440867 z" />
    <circle
       id="path13"
       style="fill:#666666;stroke:#000000;stroke-width:0.264583"
       cx="-111.21915"
       cy="166.82872"
       r="0.033215877" />
    <path
       style="fill:#666666;stroke-width:0.264583"
       id="path14"
       d="m 59.076859,-49.196577 c 8.517504,7.716906 17.796044,14.523691 27.011225,21.369737 8.101825,5.799232 16.405236,11.30748 24.781176,16.700369 4.77557,3.0747677 9.86776,6.2503767 14.63845,9.3496237 2.08364,1.3536183 4.14737,2.73763827 6.22105,4.1064574 6.62135,4.464825 13.09067,9.2365849 18.71734,14.9340869 3.64145,3.687298 3.97613,4.370995 7.18079,8.488572 3.56124,5.035571 6.67542,10.379635 9.43323,15.8937 1.26537,2.53002 3.25434,6.819075 4.15884,9.602036 0.42926,1.320739 0.66981,2.695519 1.00471,4.043278 -0.004,1.303665 0.40552,2.676358 -0.0131,3.910991 -1.41923,4.185806 -5.96038,8.271267 -9.26864,10.560809 -7.07772,4.898271 -15.20585,8.141478 -23.36863,10.670861 -5.31467,1.646843 -10.78244,2.751431 -16.17366,4.127145 -24.974692,5.062569 -50.420692,6.959745 -75.698885,9.827262 -17.796388,2.018795 -16.986163,2.030842 -34.137433,4.511641 -12.3703179,2.259988 -15.3420484,2.665438 -27.151132,5.314288 -3.405452,0.76386 -6.786403,1.63312 -10.179604,2.44968 0,0 2.257048,1.5565 2.257048,1.5565 v 0 c 3.31479,-0.86758 6.614175,-1.7963 9.944371,-2.60271 11.74544478,-2.84418 14.4159813,-3.1882 26.780075,-5.55528 16.844051,-2.578089 16.357143,-2.649828 33.860005,-4.698658 25.34249,-2.966516 50.85784,-4.814231 75.941165,-9.688065 5.47487,-1.327743 11.01983,-2.394043 16.4246,-3.983231 8.28491,-2.436042 16.72261,-5.61063 24.02073,-10.360914 3.34465,-2.176999 8.34898,-6.350029 9.88554,-10.529789 0.46052,-1.252702 0.0166,-2.669284 0.0248,-4.003924 -0.35351,-1.373283 -0.61011,-2.775228 -1.06052,-4.119848 -0.91992,-2.746282 -3.03339,-7.207176 -4.28769,-9.699985 C 167.25559,37.478657 164.19407,32.11395 160.673,27.05962 159.52587,25.567252 158.44087,24.024992 157.2316,22.582515 150.84491,14.964102 142.80154,8.9730251 134.6067,3.4537644 132.5015,2.0711643 130.40612,0.67347753 128.29108,-0.69403602 123.04169,-4.0881159 118.78476,-6.7096451 113.49309,-10.103566 105.16322,-15.446108 96.900742,-20.899458 88.88986,-26.713624 79.919853,-33.417877 70.812389,-40.025544 62.670721,-47.742837 Z" />
    <path
       style="fill:#666666;stroke-width:0.264583"
       id="path15"
       d="m 3.8984457,78.05699 c 0.5199133,-0.192341 1.0453933,-0.370258 1.5597404,-0.577027 2.991744,-1.202679 5.9453419,-2.498161 8.9194789,-3.743748 7.089941,-2.969308 20.163398,-8.419087 25.967321,-10.711807 7.612383,-3.007111 15.281413,-5.868802 22.922116,-8.803203 31.68636,-11.645696 24.838567,-9.22881 57.962438,-20.971891 10.59466,-3.75602 21.22655,-7.40718 31.80452,-11.20993 10.85749,-3.903233 21.6944,-7.864663 32.50066,-11.90758 26.5367,-9.92811424 32.62884,-12.5114385 58.38045,-22.781843 26.61165,-10.791281 52.73711,-22.717344 78.87689,-34.589621 0,0 -1.71593,-1.135333 -1.71593,-1.135333 v 0 c -25.58354,12.35242 -51.23405,24.59221 -77.4692,35.518582 -9.20881,3.7587775 -18.37443,7.6251684 -27.62643,11.2763315 -10.12872,3.9971428 -20.3136,7.8516376 -30.51212,11.6671625 -10.80623,4.042889 -21.64313,8.004283 -32.50059,11.907498 C 122.88311,32.809897 92.569878,42.973677 62.441639,53.665048 61.980733,53.829177 24.819846,67.054282 21.111071,68.400747 15.977018,70.264654 10.890861,72.258559 5.7600077,74.131256 2.348475,75.376423 3.2216865,75.091228 0.66658158,75.815208 Z" />
    <circle
       id="path16"
       style="fill:#f9f9f9;stroke:#000000;stroke-width:0.264583"
       cx="-104.98489"
       cy="122.69018"
       r="0.033215877" />
    <path
       style="fill:#f9f9f9;stroke-width:0.264583"
       id="path17"
       d="m -9.4511557,107.76116 c 7.0020324,1.25791 14.1714012,0.72272 21.2237907,0.31594 5.529384,-0.60296 10.750475,-1.04818 16.222655,-2.19846 6.42467,-1.35051 14.584055,-3.70364 20.641553,-6.175722 3.349273,-1.366848 6.746372,-2.725463 9.794359,-4.673711 3.016181,-1.927919 5.505391,-4.576847 8.258087,-6.865274 1.952766,-2.874679 4.699913,-5.34757 5.858291,-8.624038 C 75.400074,71.471628 73.648156,61.563334 71.197493,53.81812 68.224526,44.422186 61.808544,32.240876 55.393899,24.852391 50.647853,19.385822 44.82299,14.958491 39.537536,10.011541 21.022574,-2.7713567 17.528623,-6.4514465 -3.7499591,-15.69765 -20.952349,-23.172621 -37.105709,-27.564056 -55.595183,-30.726697 c -23.36075,-3.995878 -32.281294,-3.462965 -55.858247,-4.201758 -34.58164,1.207926 -17.77182,0.214506 -50.43671,2.854838 0,0 0.91014,0.649478 0.91014,0.649478 v 0 c 32.33379,-2.912554 15.66373,-1.815682 50.01965,-3.143723 23.576078,0.731234 32.50608,0.18362 55.871315,4.226385 9.131744,1.580018 18.214625,3.566353 27.109745,6.166755 15.77086,4.61046 32.538963,11.678331 46.703679,20.1211697 6.801766,4.05417300191 13.01472,9.0232138 19.522081,13.5348208 5.133639,4.8686545 10.795791,9.2346645 15.400917,14.6059635 6.342314,7.397512 12.596847,19.340351 15.478569,28.724601 2.361332,7.689609 3.910978,17.395097 1.058349,25.341024 -1.165378,3.246125 -3.856937,5.718897 -5.785405,8.578344 -2.736339,2.272491 -5.211797,4.902155 -8.209018,6.817471 -3.036866,1.940653 -6.414844,3.308943 -9.755124,4.662168 -6.528247,2.64474 -13.927968,4.63484 -20.836246,5.98118 -5.821095,1.13447 -10.602582,1.45349 -16.4422151,2.00392 -7.2376329,0.30052 -14.6149203,0.73542 -21.7523369,-0.81591 z" />
    <circle
       id="path18"
       style="fill:#f9f9f9;stroke:#000000;stroke-width:0.264583"
       cx="148.37531"
       cy="120.69521"
       r="0.033215877" />
    <path
       style="fill:#f9f9f9;stroke-width:0.264583"
       id="path20"
       d="m 200.23207,136.82361 c 4.08739,-4.74099 8.21019,-9.45643 12.22293,-14.26077 4.62073,-5.53227 9.15665,-11.13503 13.7797,-16.66538 15.60185,-18.663794 28.08026,-33.233853 44.08186,-52.039854 36.67284,-47.4888201 18.74499,-23.729171 53.80815,-71.260329 0,0 -0.0688,-0.04077 -0.0688,-0.04077 v 0 C 288.99289,30.0874 306.92063,6.327917 270.24803,53.816339 262.06369,63.333267 253.98415,72.941338 245.695,82.367122 231.9957,97.94491 223.68487,106.70781 210.10742,121.14138 c -2.37634,2.52618 -4.75306,5.05213 -7.15187,7.55698 -3.32045,3.46724 -3.37231,3.48664 -6.05413,6.09595 z" />
    <circle
       id="path21"
       style="fill:#000000;stroke:#000000;stroke-width:0.264583"
       cx="282.78589"
       cy="84.536522"
       r="0.033215877" />
    <circle
       id="path22"
       style="fill:#000000;stroke:#000000;stroke-width:0.264583"
       cx="-84.037781"
       cy="108.2267"
       r="0.033215877" />
    <path
       style="fill:#000000;stroke-width:0.264583"
       id="path23"
       d="m -95.349202,20.66839 c 11.519493,-2.724784 22.946815,-5.818459 34.53429,-8.259406 5.831281,-1.228383 11.69571,-2.293772 17.543565,-3.4406574 C -29.895942,6.8156975 -16.05882,4.2425622 -2.5029917,3.5179812 14.734097,2.5966309 31.152494,3.3932233 48.25879,5.8748104 72.736418,9.4257459 80.059029,12.42943 104.05572,19.31216 c 26.31128,9.647716 32.51817,11.272609 57.99584,23.24319 9.42289,4.427305 18.79623,8.993931 27.87298,14.093404 9.41559,5.289841 18.57033,11.050032 27.55288,17.045816 22.37015,14.931889 29.58438,21.600956 50.27176,38.43516 20.62498,17.62352 40.17009,36.46502 58.86534,56.11305 4.81716,5.06263 9.48187,10.26814 14.22278,15.40222 0,0 1.32234,0.55325 1.32234,0.55325 v 0 c -4.87286,-5.19022 -9.67748,-10.44539 -14.6186,-15.57067 -18.99293,-19.70079 -38.74191,-38.6797 -59.59237,-56.4176 C 247.30546,95.448965 239.83774,88.597884 217.55202,73.723467 208.48869,67.674222 199.25644,61.85519 189.75786,56.515309 180.691,51.41813 171.32181,46.864608 161.9077,42.441521 136.50199,30.505016 129.98354,28.740576 103.73078,19.061859 79.477295,12.04757 72.368409,9.0853179 47.634815,5.4121708 30.84132,2.9181951 13.322197,1.9151335 -3.6548808,2.6995183 -16.561263,3.2958264 -31.967463,5.9757487 -44.759057,7.929134 c -5.956628,1.0730005 -11.921098,2.103345 -17.869884,3.219002 -4.908748,0.920604 -9.807085,1.896606 -14.701705,2.889591 -7.07703,1.435735 -14.103704,3.136005 -21.21568,4.396097 z" />
    <circle
       id="path24"
       style="fill:#000000;stroke:#000000;stroke-width:0.264583"
       cx="17.954659"
       cy="136.90428"
       r="0.033215877" />
    <path
       style="fill:#000000;stroke-width:0.264583"
       id="path25"
       d="m 143.36853,143.22186 c -0.39626,-0.54361 -0.79485,-1.08553 -1.18878,-1.63083 -2.81394,-3.89514 -5.65919,-7.7552 -8.64776,-11.5202 -2.83096,-3.56644 -6.09983,-7.48405 -8.98223,-10.97286 C 112.83812,104.76533 100.60028,90.844157 87.257611,77.99798 77.493425,68.597128 74.922226,66.695245 64.642997,57.983842 49.200826,45.572624 32.903226,34.073621 15.004995,25.446302 11.003843,23.517664 6.9302076,21.70306 2.7247217,20.27381 -1.6615059,18.783135 -6.2302992,17.896412 -10.70781,16.707713 c -19.067424,-2.746514 -9.282122,-1.944165 -29.368397,-2.249547 0,0 1.719522,1.254272 1.719522,1.254272 v 0 c 20.198048,0.455 10.375265,-0.400323 29.4821743,2.401969 4.4911838,1.212945 9.07183148,2.133235 13.4735511,3.638835 4.1816194,1.430315 8.2108286,3.284501 12.2178166,5.148848 8.294137,3.859048 14.548558,7.703137 22.256714,12.841356 10.108033,6.737966 13.921121,9.967449 23.543675,17.420941 3.813088,3.222818 7.697541,6.363047 11.439266,9.668452 17.484743,15.445862 33.339878,32.647707 47.656008,51.057031 6.27908,7.71398 12.68299,15.37386 18.04609,23.77174 z" />
    <circle
       id="path26"
       style="fill:#000000;stroke:#000000;stroke-width:0.264583"
       cx="-64.586906"
       cy="86.780853"
       r="0.033215877" />
    <path
       style="fill:#000000;stroke-width:0.264583"
       id="path27"
       d="m 194.62761,-76.114393 c -1.18013,0.698759 -1.24094,0.758595 -2.65713,1.460608 -1.56672,0.77664 -4.05021,1.878621 -5.50695,2.669741 -2.76903,1.503797 -8.88774,5.213377 -11.2446,6.624045 -2.5577,1.526384 -5.10615,3.068378 -7.6731,4.579149 -8.16068,4.802942 -10.32766,5.978705 -18.73606,10.774384 -6.49117,3.702203 -13.96508,7.92413 -20.34514,11.814526 -3.35834,2.047822 -6.65656,4.192633 -9.98483,6.288948 -3.34316,2.297379 -6.76759,4.480761 -10.02947,6.892137 -3.66513,2.709475 -7.24621,5.535854 -10.740563,8.462277 C 90.70057,-10.67856 83.764645,-4.2884394 77.719599,2.5914134 70.001754,11.375074 69.064401,13.657811 62.894257,23.361825 c -1.741157,3.591498 -3.675184,7.095733 -5.223465,10.774497 -4.358529,10.356005 -7.005005,21.354507 -7.201924,32.619113 -0.180366,10.317798 0.825405,12.636968 2.779916,22.847501 3.810873,11.359824 4.13353,13.810274 9.847876,24.617314 7.01166,13.26051 16.12636,25.33072 26.11701,36.47242 3.367847,3.75587 6.97764,7.28754 10.466459,10.93131 9.778921,9.67719 20.288621,18.57268 31.186071,26.95744 3.1019,2.38669 6.28135,4.67087 9.42202,7.0063 0,0 2.38607,0.94723 2.38607,0.94723 v 0 c -3.1881,-2.35149 -6.4168,-4.64888 -9.56427,-7.05446 C 122.12468,181.0845 111.53883,172.15765 101.67734,162.45618 98.180741,158.81424 94.561392,155.2863 91.187541,151.53037 81.22936,140.44444 72.177232,128.41881 65.232417,115.19453 59.565894,104.40436 59.295852,102.06059 55.556615,90.724846 53.64871,80.575363 52.664293,78.239399 52.832687,67.984986 c 0.184484,-11.234259 2.764822,-22.235385 7.055218,-32.590618 1.524627,-3.679817 3.438255,-7.186139 5.157383,-10.779207 6.069983,-9.672913 7.046687,-12.049906 14.675193,-20.802593 9.07578,-10.4132448 19.706106,-19.370331 30.856659,-27.465302 3.28499,-2.38481 6.70843,-4.572852 10.06265,-6.859278 3.32723,-2.094021 6.62429,-4.236775 9.98171,-6.28206 15.46429,-9.4206 31.56616,-17.736444 47.18858,-26.883942 4.63938,-2.606891 7.06957,-4.062393 11.63606,-6.335058 2.0029,-0.996808 3.67693,-1.65199 5.67534,-2.568081 1.29595,-0.594074 1.6606,-0.796171 2.80268,-1.387176 z" />
    <circle
       id="path28"
       style="fill:#000000;stroke:#000000;stroke-width:0.264583"
       cx="167.32744"
       cy="159.84634"
       r="0.033215877" />
    <path
       style="fill:#000000;stroke-width:0.264583"
       id="path29"
       d="m 125.51016,106.14343 c 5.91939,-0.28073 11.55027,-2.43695 17.07529,-4.39183 7.03471,-2.918098 7.13793,-2.717485 14.52458,-7.060679 3.25338,-1.912927 6.55646,-3.776887 9.5763,-6.040594 7.3842,-5.535276 15.5357,-13.449688 21.3323,-20.542974 3.37539,-4.130445 6.21381,-8.672007 9.32071,-13.008009 2.30378,-5.313813 5.03635,-10.461623 6.91134,-15.94144 3.79676,-11.096331 5.76565,-22.557728 6.14202,-34.2649243 0.32523,-10.1164743 -0.69728,-22.5295327 -4.05715,-32.2016117 -1.80908,-5.207802 -4.82186,-9.915922 -7.23278,-14.87388 -3.49749,-4.322948 -6.67664,-8.924126 -10.49247,-12.968841 -6.54822,-6.940991 -14.98707,-13.451093 -23.11782,-18.467382 -4.17712,-2.577092 -8.61212,-4.710684 -12.91818,-7.066023 0,0 1.94835,1.56832 1.94835,1.56832 v 0 c 2.94619,1.553184 6.00652,2.906848 8.83855,4.659551 8.38703,5.190604 16.61785,11.359658 23.42875,18.529197 3.82107,4.022283 6.99532,8.612949 10.49298,12.919424 2.40106,4.935579 5.39233,9.625443 7.20318,14.806742 3.37633,9.6605 4.5025,22.0940816 4.21923,32.2132526 -0.32581,11.6384994 -2.27539,23.2022804 -6.10713,34.2161894 -1.89658,5.45149 -4.68858,10.548945 -7.03287,15.823416 -3.11858,4.318259 -5.95576,8.854419 -9.35576,12.954778 -6.21446,7.494569 -13.80395,14.543706 -21.72673,20.222644 -3.08771,2.213226 -6.42664,4.060803 -9.74868,5.903727 -6.95125,3.856246 -8.22008,4.130558 -14.92559,6.737776 -5.65688,1.856371 -11.45561,3.955771 -17.48764,3.956081 z" />
  </g>
</svg>
